<?xml version="1.0" encoding="UTF-8" standalone="no"?>
<!-- Created with Inkscape (http://www.inkscape.org/) -->

<svg
   xmlns:dc="http://purl.org/dc/elements/1.1/"
   xmlns:cc="http://creativecommons.org/ns#"
   xmlns:rdf="http://www.w3.org/1999/02/22-rdf-syntax-ns#"
   xmlns:svg="http://www.w3.org/2000/svg"
   xmlns="http://www.w3.org/2000/svg"
   xmlns:sodipodi="http://sodipodi.sourceforge.net/DTD/sodipodi-0.dtd"
   xmlns:inkscape="http://www.inkscape.org/namespaces/inkscape"
   width="170.79832mm"
   height="232.13193mm"
   viewBox="0 0 170.79832 232.13193"
   version="1.1"
   id="svg8"
   inkscape:version="0.92.5 (2060ec1f9f, 2020-04-08)"
   sodipodi:docname="mcdc_sign.svg">
  <defs
     id="defs2">
    <filter
       style="color-interpolation-filters:sRGB"
       id="filter1969"
       inkscape:label="filter0" />
  </defs>
  <sodipodi:namedview
     id="base"
     pagecolor="#ffffff"
     bordercolor="#666666"
     borderopacity="1.0"
     inkscape:pageopacity="0.0"
     inkscape:pageshadow="2"
     inkscape:zoom="1"
     inkscape:cx="304.16304"
     inkscape:cy="652.00218"
     inkscape:document-units="mm"
     inkscape:current-layer="g853"
     showgrid="false"
     inkscape:window-width="1920"
     inkscape:window-height="1016"
     inkscape:window-x="0"
     inkscape:window-y="0"
     inkscape:window-maximized="1"
     fit-margin-top="0"
     fit-margin-left="0"
     fit-margin-right="0"
     fit-margin-bottom="0" />
  <metadata
     id="metadata5">
    <rdf:RDF>
      <cc:Work
         rdf:about="">
        <dc:format>image/svg+xml</dc:format>
        <dc:type
           rdf:resource="http://purl.org/dc/dcmitype/StillImage" />
        <dc:title />
      </cc:Work>
    </rdf:RDF>
  </metadata>
  <g
     inkscape:label="Layer 1"
     inkscape:groupmode="layer"
     id="layer1"
     transform="translate(-20.172605,-45.893809)" />
  <g
     inkscape:groupmode="layer"
     id="layer2"
     inkscape:label="Layer 2"
     transform="translate(-20.172605,-45.893809)">
    <g
       id="g2930"
       inkscape:export-xdpi="96"
       inkscape:export-ydpi="96">
      <path
         inkscape:export-ydpi="96"
         inkscape:export-xdpi="96"
         sodipodi:nodetypes="cssssssssscccccccccccc"
         inkscape:connector-curvature="0"
         id="path1119"
         d="m 51.115301,142.25094 c 0,0 2.727831,-32.36442 5.820719,-49.240661 1.903609,-10.386981 6.461352,-25.160358 13.134672,-32.789434 1.99363,-2.279158 5.836926,-2.612201 8.426185,-0.110709 12.520355,12.095959 11.958679,30.108586 16.375146,53.571414 1.725311,9.16585 18.336897,-8.77691 21.922617,-17.386907 4.69585,-11.275643 6.37054,-28.325166 16.44197,-35.057293 1.47018,-0.982724 4.89303,-0.88231 6.42558,0 6.29475,3.623984 11.16357,19.92925 13.62059,32.025614 1.62151,7.982986 4.0747,20.869026 7.38812,47.607416 0.49887,4.02572 8.51071,-32.2954 8.51071,-32.2954 L 157.15448,67.415475 139.11379,50.844764 126.41848,55.922886 107.70962,87.460689 101.16152,86.926149 87.129865,58.729215 77.508163,49.909322 63.743781,54.051998 45.970359,95.746045 42.495853,136.37101 Z"
         style="fill:#e3a403;fill-opacity:1;stroke:none;stroke-width:0.26458332px;stroke-linecap:butt;stroke-linejoin:miter;stroke-opacity:1"
         transform="translate(-1.2291666e-7,-1.0833333e-6)" />
      <g
         inkscape:export-ydpi="96"
         inkscape:export-xdpi="96"
         id="g1039">
        <path
           style="fill:#201818;fill-opacity:1;stroke:none;stroke-width:0.27311608px;stroke-linecap:butt;stroke-linejoin:miter;stroke-opacity:1"
           d="m 100.99024,207.33922 -0.21293,70.68652 10.20789,-0.2759 -0.96561,-70.42065 z"
           id="path890-3"
           inkscape:connector-curvature="0" />
        <path
           style="fill:#303030;fill-opacity:1;stroke:none;stroke-width:0.26458332px;stroke-linecap:butt;stroke-linejoin:miter;stroke-opacity:1"
           d="m 100.96689,209.54576 -0.20628,68.47811 9.88897,-0.26728 -0.93544,-68.22055 z"
           id="path890"
           inkscape:connector-curvature="0" />
        <path
           style="opacity:1;fill:#d2241d;fill-opacity:1;stroke:#303030;stroke-width:1.26499999;stroke-linecap:butt;stroke-linejoin:miter;stroke-miterlimit:4;stroke-dasharray:none;stroke-opacity:1"
           d="m 20.847022,141.71639 3.741774,57.99749 161.965334,-1.06908 3.74177,-57.73021 z"
           id="path829"
           inkscape:connector-curvature="0" />
        <g
           id="g840"
           style="fill:none;stroke:#9a1a13;stroke-opacity:1">
          <path
             sodipodi:nodetypes="cc"
             inkscape:connector-curvature="0"
             id="path831"
             d="M 57.028679,141.83396 56.58776,198.25609"
             style="fill:none;stroke:#9a1a13;stroke-width:0.26458332px;stroke-linecap:butt;stroke-linejoin:miter;stroke-opacity:1" />
          <path
             inkscape:connector-curvature="0"
             id="path1117"
             d="m 93.87842,141.52837 0.06682,4.39753 h 22.04973 l 0.13364,-4.39753 z"
             style="fill:#81160f;fill-opacity:1;stroke:#9a1a13;stroke-width:0.27754238;stroke-linecap:butt;stroke-linejoin:miter;stroke-miterlimit:4;stroke-dasharray:none;stroke-opacity:1" />
          <path
             sodipodi:nodetypes="cc"
             inkscape:connector-curvature="0"
             id="path833"
             d="m 109.23894,145.87708 c 0.38721,18.85857 0.69647,33.88067 0.73824,52.73924"
             style="fill:none;stroke:#9a1a13;stroke-width:0.26458332px;stroke-linecap:butt;stroke-linejoin:miter;stroke-opacity:1" />
          <path
             sodipodi:nodetypes="cc"
             inkscape:connector-curvature="0"
             id="path835"
             d="m 154.49777,141.74628 1.10975,56.20216"
             style="fill:none;stroke:#9a1a13;stroke-width:0.26458332px;stroke-linecap:butt;stroke-linejoin:miter;stroke-opacity:1" />
          <path
             style="fill:#8c180f;fill-opacity:1;stroke:#9a1a13;stroke-width:0.26458332px;stroke-linecap:butt;stroke-linejoin:miter;stroke-opacity:1"
             d="m 158.46652,141.74628 0.75595,11.90625 22.01711,-0.51972 -0.37797,-11.52827 z"
             id="path859"
             inkscape:connector-curvature="0"
             sodipodi:nodetypes="cccc" />
          <path
             style="fill:#8f1811;fill-opacity:1;stroke:#9a1a13;stroke-width:0.26458332px;stroke-linecap:butt;stroke-linejoin:miter;stroke-opacity:1"
             d="m 29.132379,142.38458 0.06682,5.81311 12.695301,6.48128 9.153982,-0.13363 0.06682,-12.2944 h -2.138161 l -0.200452,9.88898 -6.662448,0.67692 -10.375985,-6.42322 -0.334086,-4.00904 z"
             id="path861"
             inkscape:connector-curvature="0" />
        </g>
        <g
           id="g853"
           transform="rotate(-0.63549041,2373.7082,-8601.9921)"
           style="opacity:1;fill:#fdb709;fill-opacity:1;stroke:#fdce58;stroke-width:1.5;stroke-linecap:square;stroke-linejoin:round;stroke-miterlimit:4;stroke-dasharray:none;stroke-opacity:1;paint-order:markers stroke fill">
          <rect
             style="opacity:1;fill:#fdce58;fill-opacity:1;stroke:none;stroke-width:0.02483707;stroke-linecap:square;stroke-linejoin:round;stroke-miterlimit:4;stroke-dasharray:none;stroke-opacity:1;paint-order:markers stroke fill"
             id="rect1437-3-6"
             width="65.67308"
             height="10.874508"
             x="-23.906605"
             y="83.415657"
             transform="rotate(0.63549041)" />
          <rect
             style="opacity:1;fill:#fdce58;fill-opacity:1;stroke:none;stroke-width:0.02483707;stroke-linecap:square;stroke-linejoin:round;stroke-miterlimit:4;stroke-dasharray:none;stroke-opacity:1;paint-order:markers stroke fill"
             id="rect1437-3-6-7"
             width="65.67308"
             height="10.874508"
             x="-23.985167"
             y="67.632103"
             transform="rotate(0.63549041)" />
          <path
             style="opacity:1;fill:#fdb709;fill-opacity:1;stroke:#fdce58;stroke-width:1.5;stroke-linecap:square;stroke-linejoin:round;stroke-miterlimit:4;stroke-dasharray:none;stroke-opacity:1;paint-order:markers stroke fill"
             d="m 64.173007,126.3414 c -0.187749,-0.17967 -0.320232,-2.10136 -0.457754,-6.63974 C 63.306675,106.21793 62.860908,98.575527 61.96571,89.70677 58.700086,57.354122 51.251136,34.485218 42.949979,31.326847 41.651336,30.832748 39.526006,30.815433 38.214508,31.288265 29.935987,34.27292 22.352345,55.711547 19.146224,85.193477 c -0.902971,8.303267 -1.416237,16.717443 -1.662462,27.253333 -0.07809,3.34157 -0.234149,6.21482 -0.346793,6.385 -0.192144,0.29026 -0.750234,0.30637 -9.0271879,0.26037 -4.8523108,-0.0269 -8.90379976,-0.11375 -9.00330845,-0.19287 -0.0995108,-0.0792 -0.20512275,-1.05555 -0.23469455,-2.16985 -0.173228,-6.5275 -0.5608681,-15.66762 -0.836848,-19.731987 C -4.196312,64.137825 -8.7123525,36.163755 -17.41232,29.628877 c -1.577245,-1.18473 -2.701429,-1.586131 -4.455817,-1.591003 -1.751867,-0.0049 -2.60866,0.286751 -4.072014,1.385931 -9.364815,7.034271 -19.412558,41.227648 -20.913473,78.856905 -0.118055,2.95967 -0.275263,8.14456 -0.349362,11.52197 -0.0741,3.37742 -0.186602,6.24812 -0.250012,6.37937 -0.09146,0.18928 -0.867292,0.23831 -3.752869,0.23716 l -3.637575,-9.8e-4 -4.917715,-2.54026 c -2.70474,-1.39713 -5.187558,-2.66584 -5.517375,-2.81935 -0.57436,-0.26732 -0.599728,-0.33772 -0.601059,-1.66748 -0.0041,-4.4459 0.989445,-17.17014 1.864338,-23.868697 4.222616,-32.329994 16.651569,-59.893581 29.669845,-70.101176 5.192589,-4.071495 10.297193,-5.526124 15.80986,-4.505247 3.56802,0.660752 6.589816,2.049712 9.8137205,4.510841 6.6394991,5.068603 9.52546344,15.790105 14.6613207,27.992215 2.2472147,5.339078 2.0201814,4.878574 2.2968677,4.658826 0.1254373,-0.09963 1.0497279,-2.136522 2.0539811,-4.526435 2.319142,-5.519094 3.826435,-8.531379 6.229215,-12.448922 3.244697,-5.290222 6.556688,-9.221497 10.288369,-12.212119 2.44382,-1.958509 4.264061,-3.023028 6.867409,-4.016218 4.844695,-1.848275 8.620394,-1.871671 13.344097,-0.08268 4.235193,1.603972 7.964391,4.472087 11.841312,9.107112 11.425684,13.659895 19.922103,40.226935 22.56698,70.56359 0.824307,9.45478 1.162476,21.49018 0.61602,21.92418 -0.195181,0.15503 -2.480835,0.20831 -8.934398,0.20831 -7.327117,0 -8.713098,-0.0392 -8.936339,-0.25285 z"
             id="path855"
             inkscape:connector-curvature="0"
             sodipodi:nodetypes="cssscsscccssscsssccccccsssssccssscsscscc" />
          <rect
             style="opacity:1;fill:#fdb709;fill-opacity:1;stroke:none;stroke-width:0.0238364;stroke-miterlimit:4;stroke-dasharray:none;stroke-opacity:1"
             id="rect1437"
             width="64.363457"
             height="10.219698"
             x="-23.30253"
             y="67.630997"
             transform="rotate(0.63549049)" />
          <rect
             style="opacity:1;fill:#fdb709;fill-opacity:1;stroke:none;stroke-width:0.0238364;stroke-linecap:square;stroke-linejoin:round;stroke-miterlimit:4;stroke-dasharray:none;stroke-opacity:1;paint-order:markers stroke fill"
             id="rect1437-3"
             width="64.363457"
             height="10.219698"
             x="-23.252132"
             y="83.419769"
             transform="rotate(0.63549041)" />
        </g>
        <path
           style="fill:#303030;fill-opacity:1;stroke:none;stroke-width:0.26458332px;stroke-linecap:butt;stroke-linejoin:miter;stroke-opacity:1"
           d="m 51.315749,205.32655 53.721171,2.93996 53.98845,-3.34087 2.98172,-5.58757 -113.484398,0.5693 z"
           id="path863"
           inkscape:connector-curvature="0"
           sodipodi:nodetypes="cccccc" />
        <path
           style="fill:#201818;fill-opacity:1;stroke:none;stroke-width:0.26458332px;stroke-linecap:butt;stroke-linejoin:miter;stroke-opacity:1"
           d="m 24.007394,200.3444 2.214704,2.96475 24.024573,-0.18758 -1.72398,-3.2142 z"
           id="path884"
           inkscape:connector-curvature="0" />
        <path
           sodipodi:nodetypes="ccccccc"
           style="fill:#201818;fill-opacity:1;stroke:none;stroke-width:0.26458332px;stroke-linecap:butt;stroke-linejoin:miter;stroke-opacity:1"
           d="m 51.315749,205.32655 1.482799,2.23483 52.326082,2.33873 52.69224,-3.00019 1.22504,-2.00322 -54.01334,3.07748 z"
           id="path886"
           inkscape:connector-curvature="0" />
        <path
           sodipodi:nodetypes="ccccc"
           style="fill:#201818;fill-opacity:1;stroke:none;stroke-width:0.26458332px;stroke-linecap:butt;stroke-linejoin:miter;stroke-opacity:1"
           d="m 187.10537,199.24617 -2.07134,2.99007 -24.61858,0.0335 1.59164,-2.93167 z"
           id="path888"
           inkscape:connector-curvature="0" />
      </g>
      <g
         transform="translate(0,-2.1166667)"
         id="text2085"
         style="font-style:normal;font-weight:normal;font-size:8.68964005px;line-height:1.25;font-family:sans-serif;letter-spacing:1.91172099px;word-spacing:0px;fill:#fdb709;fill-opacity:1;stroke:none;stroke-width:0.217241"
         aria-label="OVER __ HODLERS SERVED"
         inkscape:export-xdpi="96"
         inkscape:export-ydpi="96">
        <path
           inkscape:connector-curvature="0"
           inkscape:export-ydpi="96"
           inkscape:export-xdpi="96"
           id="path2115"
           style="font-style:normal;font-variant:normal;font-weight:normal;font-stretch:normal;font-family:helvari;-inkscape-font-specification:helvari;letter-spacing:1.05833328px;fill:#fdb709;fill-opacity:1;stroke-width:0.217241"
           d="m 45.381798,184.11203 q 0.330206,-0.10428 0.703861,-0.10428 h 0.0869 q 0.538758,0.0261 0.95586,0.20855 0.304138,0.13035 0.538758,0.32152 0.24331,0.19117 0.443172,0.44317 0.356275,0.43448 0.521378,0.99931 0.173793,0.56482 0.173793,1.21655 0,0.72124 -0.208551,1.32951 -0.208552,0.60828 -0.608275,1.05145 -0.191172,0.19986 -0.408413,0.36496 -0.217241,0.15642 -0.469241,0.26069 -0.495309,0.21724 -1.138343,0.21724 -0.616964,0 -1.129653,-0.21724 -0.547447,-0.22593 -0.929791,-0.67779 -0.382345,-0.46055 -0.582206,-1.07751 -0.09559,-0.27807 -0.139035,-0.5909 -0.04345,-0.32152 -0.04345,-0.66041 0,-0.65173 0.173793,-1.21655 0.23462,-0.756 0.738619,-1.25131 0.512689,-0.49531 1.320826,-0.61696 z m 0.269379,5.38757 q 0.09559,0.0348 0.199861,0.0608 0.104276,0.0174 0.225931,0.0174 h 0.05214 q 0.304137,-0.0261 0.582206,-0.1651 0.330206,-0.1738 0.530068,-0.46924 0.121655,-0.1738 0.217241,-0.38235 0.104275,-0.20855 0.156413,-0.45186 0.09559,-0.43448 0.09559,-0.87765 0,-0.54745 -0.121655,-0.99931 -0.112965,-0.45186 -0.364965,-0.78207 -0.208551,-0.28676 -0.530068,-0.46924 -0.321516,-0.17379 -0.72124,-0.17379 -0.417103,0 -0.72993,0.1651 -0.321516,0.17379 -0.530068,0.46055 -0.24331,0.34759 -0.364964,0.83421 -0.09559,0.43448 -0.09559,0.87765 0,0.49531 0.104276,0.92979 0.147724,0.57352 0.469241,0.96455 0.330206,0.39104 0.825516,0.46055 z" />
        <path
           inkscape:connector-curvature="0"
           inkscape:export-ydpi="96"
           inkscape:export-xdpi="96"
           id="path2117"
           style="font-style:normal;font-variant:normal;font-weight:normal;font-stretch:normal;font-family:helvari;-inkscape-font-specification:helvari;letter-spacing:1.05833328px;fill:#fdb709;fill-opacity:1;stroke-width:0.217241"
           d="m 54.773494,184.15547 q 0.03476,-0.0261 0.09559,-0.0261 0.06952,-0.009 0.139034,-0.009 h 0.156414 q 0.04345,0 0.0869,0 0.05214,0 0.104276,0.009 0.06952,0.009 0.147724,0.0261 0.07821,0.0174 0.0869,0.0695 0,0.0174 0,0.0261 0.0087,0 0.0087,0.0174 0,0.0435 -0.02607,0.0956 -0.02607,0.0695 -0.05214,0.14773 -0.01738,0.0695 -0.04345,0.13903 -0.03476,0.0782 -0.06083,0.14773 -0.01738,0.0695 -0.04345,0.15641 -0.04345,0.12166 -0.147724,0.40841 -0.104275,0.27807 -0.23462,0.64304 -0.130345,0.35627 -0.278069,0.756 -0.139034,0.39972 -0.269378,0.7473 -0.130345,0.34759 -0.225931,0.60828 -0.0869,0.26069 -0.121655,0.34759 -0.06952,0.19986 -0.139034,0.39103 -0.06083,0.18248 -0.130345,0.35627 -0.03476,0.0956 -0.06952,0.18249 -0.02607,0.0869 -0.06083,0.17379 -0.01738,0.0435 -0.03476,0.0956 -0.0087,0.0434 -0.02607,0.0869 -0.01738,0.0521 -0.03476,0.10428 -0.01738,0.0434 -0.03476,0.0956 -0.01738,0.0435 -0.04345,0.0869 -0.01738,0.0434 -0.03476,0.0869 -0.03476,0.0608 -0.07821,0.11296 -0.03476,0.0521 -0.0869,0.0521 h -0.773378 q -0.06952,0 -0.121655,-0.10428 -0.01738,-0.0434 -0.04345,-0.11296 -0.02607,-0.0782 -0.05214,-0.14773 -0.01738,-0.0434 -0.03476,-0.0869 -0.0087,-0.0435 -0.02607,-0.0869 0,-0.0521 -0.02607,-0.0782 -0.0087,-0.0348 -0.01738,-0.0521 -0.0087,-0.0261 -0.01738,-0.0435 -0.199862,-0.5909 -0.408413,-1.16441 -0.208551,-0.57352 -0.417103,-1.14704 -0.199861,-0.5822 -0.408413,-1.15572 -0.208551,-0.57351 -0.417102,-1.15572 -0.02607,-0.0869 -0.05214,-0.14772 -0.02607,-0.0695 -0.05214,-0.15642 -0.02607,-0.0782 -0.05214,-0.14772 -0.01738,-0.0782 -0.04345,-0.14772 -0.0087,-0.0261 -0.0087,-0.0435 0,-0.0174 -0.0087,-0.0435 0,-0.0435 0.06083,-0.0869 0.06083,-0.0435 0.191172,-0.0521 0.01738,-0.009 0.05214,-0.009 h 0.112965 0.382344 q 0.165104,0 0.234621,0.0348 0.06952,0.0348 0.07821,0.0869 0.04345,0.0695 0.05214,0.13034 0.01738,0.0608 0.04345,0.13035 0.01738,0.0348 0.02607,0.0695 0.0087,0.0348 0.02607,0.0695 0.02607,0.0782 0.05214,0.15642 0.02607,0.0695 0.05214,0.14772 0.278069,0.83421 0.547447,1.65103 0.269379,0.81683 0.547448,1.64234 0.06083,0.19118 0.104275,0.39104 0.05214,0.19986 0.09559,0.31283 0.04345,-0.12166 0.0869,-0.31283 0.04345,-0.19117 0.112965,-0.39104 0.156414,-0.44317 0.295448,-0.86896 0.147724,-0.42579 0.295448,-0.86896 0.06952,-0.19987 0.130344,-0.39104 0.06952,-0.19986 0.130345,-0.38234 0.05214,-0.14773 0.09559,-0.28676 0.05214,-0.14772 0.09559,-0.26938 0.02607,-0.0695 0.04345,-0.13903 0.02607,-0.0695 0.05214,-0.13035 0.01738,-0.0435 0.03476,-0.10427 0.01738,-0.0608 0.05214,-0.15642 0.0087,-0.0434 0.01738,-0.0782 0.01738,-0.0434 0.03476,-0.0869 0.01738,-0.0435 0.02607,-0.0782 0.01738,-0.0434 0.02607,-0.0695 0.02607,-0.0608 0.112965,-0.0695 0.03476,-0.0261 0.06083,-0.0435 0.03476,-0.0261 0.06952,-0.0608 z" />
        <path
           inkscape:connector-curvature="0"
           inkscape:export-ydpi="96"
           inkscape:export-xdpi="96"
           id="path2119"
           style="font-style:normal;font-variant:normal;font-weight:normal;font-stretch:normal;font-family:helvari;-inkscape-font-specification:helvari;letter-spacing:1.05833328px;fill:#fdb709;fill-opacity:1;stroke-width:0.217241"
           d="m 61.288911,190.05574 q 0,0.17379 -0.0869,0.21724 -0.02607,0.0174 -0.121655,0.0174 -0.0869,0 -0.173793,0 h -3.12827 q -0.104276,0 -0.208552,0 -0.09559,-0.009 -0.112965,-0.0348 -0.02607,-0.0261 -0.03476,-0.12165 -0.0087,-0.0956 -0.0087,-0.22593 v -5.50055 q 0,-0.0434 0,-0.0869 0,-0.0435 0.0087,-0.0869 0.0087,-0.0521 0.130345,-0.0782 0.04345,-0.009 0.0869,-0.009 0.05214,-0.009 0.09559,-0.009 0.05214,-0.0174 0.104275,-0.0174 h 3.058753 q 0.07821,0 0.165104,0.009 0.09559,0 0.121655,0.0174 0.0869,0.0435 0.0869,0.23462 0,0.0434 -0.0087,0.0869 0,0.0348 0,0.0782 v 0.0956 q 0,0.0435 0,0.0782 0.0087,0.0261 0.0087,0.0608 v 0.0174 q 0,0.0261 -0.0087,0.0608 0,0.0261 -0.02607,0.0521 -0.02607,0.0261 -0.121655,0.0348 -0.09559,0.009 -0.208551,0.009 h -2.424409 v 1.74662 h 2.16372 q 0.05214,0 0.104276,0.009 0.05214,0 0.09559,0.009 0.09559,0 0.121655,0.0348 0.03476,0.0521 0.03476,0.12165 v 0.33021 0.13903 q 0,0.0782 -0.04345,0.12166 -0.03476,0.0434 -0.130345,0.0521 -0.09559,0.009 -0.182482,0.009 h -2.16372 v 1.93779 h 2.624271 q 0.104276,0 0.130344,0.0261 0.04345,0.0348 0.04345,0.0956 0.0087,0.0608 0.0087,0.13034 v 0.16511 z" />
        <path
           inkscape:connector-curvature="0"
           inkscape:export-ydpi="96"
           inkscape:export-xdpi="96"
           id="path2121"
           style="font-style:normal;font-variant:normal;font-weight:normal;font-stretch:normal;font-family:helvari;-inkscape-font-specification:helvari;letter-spacing:1.05833328px;fill:#fdb709;fill-opacity:1;stroke-width:0.217241"
           d="m 67.239504,187.94416 q 0.05214,0.10427 0.09559,0.21724 0.04345,0.10427 0.0869,0.21724 0.07821,0.19986 0.147724,0.44317 0.07821,0.23462 0.130345,0.48662 0.02607,0.13034 0.06083,0.26069 0.04345,0.12165 0.0869,0.24331 0.01738,0.0348 0.02607,0.0608 0.0087,0.0261 0.01738,0.0521 0.02607,0.0435 0.04345,0.0869 0.01738,0.0348 0.02607,0.0695 0.01738,0.0261 0.03476,0.0695 0,0.0782 -0.07821,0.11296 -0.06952,0.0261 -0.191172,0.0261 H 67.02228 q -0.05214,0 -0.112966,-0.0608 -0.05214,-0.0695 -0.09559,-0.22593 -0.03476,-0.12165 -0.06083,-0.23462 -0.01738,-0.12165 -0.03476,-0.18248 -0.01738,-0.0608 -0.03476,-0.12166 -0.0087,-0.0608 -0.02607,-0.13034 -0.01738,-0.0521 -0.03476,-0.10428 -0.0087,-0.0608 -0.02607,-0.11296 -0.06083,-0.15642 -0.121655,-0.31283 -0.06083,-0.15641 -0.130344,-0.30414 -0.0869,-0.17379 -0.208551,-0.3302 -0.112966,-0.16511 -0.278069,-0.26938 -0.02607,-0.0174 -0.06083,-0.0348 -0.03476,-0.0174 -0.06083,-0.0348 -0.03476,-0.0174 -0.03476,-0.0174 -0.0087,-0.009 -0.01738,-0.009 -0.182482,-0.0956 -0.443171,-0.0956 h -0.825516 v 2.28537 q 0,0.0695 -0.0087,0.1651 0,0.0956 -0.02607,0.11297 -0.06952,0.0174 -0.121655,0.0174 h -0.556137 -0.191172 q -0.06952,0 -0.112965,-0.009 -0.02607,0 -0.04345,-0.12166 0,-0.0434 -0.0087,-0.0782 0,-0.0434 0,-0.0782 v -5.67433 q 0,-0.0435 0.05214,-0.0956 0.05214,-0.0521 0.173793,-0.0695 0.04345,-0.009 0.07821,-0.009 0.03476,-0.009 0.06952,-0.009 0.01738,-0.009 0.04345,-0.009 0.0087,-0.009 0.01738,-0.009 0.252,-0.0174 0.460551,-0.0261 0.217241,-0.009 0.443172,-0.009 h 0.338896 0.71255 l 0.286758,0.0261 q 0.895033,0.0782 1.338205,0.55613 0.408413,0.43448 0.408413,1.13834 0,0.30414 -0.09559,0.5909 -0.0869,0.26069 -0.269379,0.46924 -0.252,0.30414 -0.643033,0.45186 -0.07821,0.0348 -0.147724,0.0435 0.104275,0.0434 0.217241,0.13035 0.260689,0.19117 0.408413,0.44317 z m -2.085514,-3.06745 q -0.09559,0 -0.182482,0 -0.0869,0 -0.173793,0.009 -0.104276,0 -0.208551,0 -0.09559,0 -0.173793,0.009 v 2.07683 q 0.09559,0 0.22593,0.009 0.130345,0 0.278069,0 0.112965,0 0.225931,0 0.121655,0 0.251999,0.009 0.173793,0 0.312827,-0.0174 0.147724,-0.0261 0.278069,-0.0608 0.104275,-0.0261 0.191172,-0.0695 0.09559,-0.0521 0.165103,-0.10427 0.173793,-0.13904 0.260689,-0.33021 0.09559,-0.19117 0.09559,-0.47793 0,-0.39103 -0.165103,-0.61696 -0.156414,-0.22593 -0.512689,-0.3389 -0.199862,-0.0521 -0.417103,-0.0695 -0.208551,-0.0261 -0.451861,-0.0261 z" />
        <path
           inkscape:export-ydpi="96"
           inkscape:export-xdpi="96"
           inkscape:connector-curvature="0"
           id="path2127"
           style="font-style:normal;font-variant:normal;font-weight:normal;font-stretch:normal;font-family:helvari;-inkscape-font-specification:helvari;letter-spacing:1.05833328px;fill:#fdb709;fill-opacity:1;stroke-width:0.217241"
           d="m 92.830072,190.29036 h -0.278068 q -0.05214,-0.0434 -0.06952,-0.12166 -0.0087,-0.0869 -0.02607,-0.17379 0,-0.0174 -0.0087,-0.0348 0,-0.0261 0,-0.0521 v -2.38097 h -2.632961 v 2.41572 q -0.0087,0.10428 -0.0087,0.21724 0,0.11297 -0.03476,0.13035 h -0.304137 -0.669103 q -0.02607,-0.009 -0.03476,-0.12166 -0.0087,-0.11296 -0.01738,-0.21724 v -5.50054 q 0,-0.0521 0,-0.10427 0,-0.0608 0.01738,-0.13035 0.03476,-0.0608 0.147724,-0.0869 0.04345,0 0.0869,0 0.04345,-0.009 0.0869,-0.009 h 0.382344 q 0.04345,0.009 0.0869,0.009 0.05214,0 0.09559,0.009 0.121655,0.0261 0.147724,0.0782 0.0087,0.0435 0.0087,0.0782 0.0087,0.0261 0.0087,0.0608 v 2.3462 h 2.632961 v -2.3462 q 0,-0.0348 0,-0.0695 0,-0.0348 0.01738,-0.0695 0.02607,-0.0521 0.147723,-0.0782 0.05214,-0.009 0.09559,-0.009 0.05214,0 0.09559,-0.009 h 0.373655 q 0.01738,0 0.02607,0.009 0.0087,0 0.02607,0 0.03476,0 0.06083,0 0.03476,0 0.07821,0.009 0.121655,0.0261 0.147724,0.0782 0.01738,0.0521 0.01738,0.11297 0,0.0521 0,0.11296 v 5.3702 0.19117 q 0,0.11297 -0.0087,0.15641 -0.04345,0.0521 -0.09559,0.0956 -0.04345,0.0348 -0.121655,0.0348 z" />
        <path
           inkscape:export-ydpi="96"
           inkscape:export-xdpi="96"
           inkscape:connector-curvature="0"
           id="path2129"
           style="font-style:normal;font-variant:normal;font-weight:normal;font-stretch:normal;font-family:helvari;-inkscape-font-specification:helvari;letter-spacing:1.05833328px;fill:#fdb709;fill-opacity:1;stroke-width:0.217241"
           d="m 97.868247,184.11203 q 0.330206,-0.10428 0.703861,-0.10428 h 0.0869 q 0.538758,0.0261 0.955861,0.20855 0.304137,0.13035 0.538761,0.32152 0.24331,0.19117 0.44317,0.44317 0.35628,0.43448 0.52138,0.99931 0.17379,0.56482 0.17379,1.21655 0,0.72124 -0.20855,1.32951 -0.20855,0.60828 -0.60828,1.05145 -0.19117,0.19986 -0.40841,0.36496 -0.217241,0.15642 -0.469241,0.26069 -0.495309,0.21724 -1.138342,0.21724 -0.616965,0 -1.129654,-0.21724 -0.547447,-0.22593 -0.929791,-0.67779 -0.382344,-0.46055 -0.582206,-1.07751 -0.09559,-0.27807 -0.139034,-0.5909 -0.04345,-0.32152 -0.04345,-0.66041 0,-0.65173 0.173792,-1.21655 0.234621,-0.756 0.73862,-1.25131 0.512688,-0.49531 1.320825,-0.61696 z m 0.269379,5.38757 q 0.09559,0.0348 0.199862,0.0608 0.104275,0.0174 0.22593,0.0174 h 0.05214 q 0.304137,-0.0261 0.582206,-0.1651 0.330206,-0.1738 0.530068,-0.46924 0.121655,-0.1738 0.217241,-0.38235 0.104277,-0.20855 0.156417,-0.45186 0.0956,-0.43448 0.0956,-0.87765 0,-0.54745 -0.12166,-0.99931 -0.112964,-0.45186 -0.364963,-0.78207 -0.208552,-0.28676 -0.530068,-0.46924 -0.321517,-0.17379 -0.72124,-0.17379 -0.417103,0 -0.72993,0.1651 -0.321517,0.17379 -0.530068,0.46055 -0.24331,0.34759 -0.364965,0.83421 -0.09559,0.43448 -0.09559,0.87765 0,0.49531 0.104275,0.92979 0.147724,0.57352 0.469241,0.96455 0.330206,0.39104 0.825516,0.46055 z" />
        <path
           inkscape:export-ydpi="96"
           inkscape:export-xdpi="96"
           inkscape:connector-curvature="0"
           id="path2131"
           style="font-style:normal;font-variant:normal;font-weight:normal;font-stretch:normal;font-family:helvari;-inkscape-font-specification:helvari;letter-spacing:1.05833328px;fill:#fdb709;fill-opacity:1;stroke-width:0.217241"
           d="m 104.77472,190.36857 q -0.11296,0 -0.22593,-0.009 -0.11296,0 -0.21724,0 -0.12165,0 -0.252,-0.009 -0.13034,-0.009 -0.24331,-0.0261 -0.0956,-0.0174 -0.19117,-0.0261 -0.0869,-0.009 -0.18248,-0.0261 -0.0261,-0.009 -0.0434,-0.0695 -0.0174,-0.0608 -0.0348,-0.14772 0,-0.0695 -0.009,-0.13035 0,-0.0608 0,-0.10427 v -5.32675 q 0,-0.0521 0,-0.10428 0,-0.0521 0.0174,-0.10427 0.009,-0.0435 0.18248,-0.0869 0.0695,-0.0174 0.13035,-0.0261 0.0695,-0.009 0.12165,-0.009 0.0695,-0.0174 0.0956,-0.0174 h 0.0782 q 0.12166,-0.0174 0.252,-0.0174 0.13035,-0.009 0.27807,-0.0174 0.1738,-0.009 0.34759,-0.009 0.18248,0 0.38234,-0.009 1.55545,0 2.32883,0.79944 0.77337,0.79076 0.77337,2.24193 0.009,0.37365 -0.0434,0.71255 -0.0521,0.33021 -0.14773,0.63434 -0.17379,0.5909 -0.57351,1.02538 -0.38235,0.4171 -0.95586,0.64304 -0.56483,0.21724 -1.38166,0.21724 h -0.17379 z m -0.12165,-5.47448 q -0.0521,0 -0.10428,0.009 -0.0521,0 -0.10427,0 v 4.58813 q 0.12165,0 0.26938,0.009 0.14772,0 0.29544,0.009 h 0.3389 q 0.36496,0 0.69517,-0.11296 0.3389,-0.11297 0.60827,-0.36497 0.252,-0.23462 0.40842,-0.61696 0.20855,-0.49531 0.20855,-1.22524 0,-0.52138 -0.10428,-0.92979 -0.0956,-0.40842 -0.31282,-0.70386 -0.252,-0.35628 -0.70386,-0.504 -0.45187,-0.15642 -1.12966,-0.15642 h -0.1651 z" />
        <path
           inkscape:export-ydpi="96"
           inkscape:export-xdpi="96"
           inkscape:connector-curvature="0"
           id="path2133"
           style="font-style:normal;font-variant:normal;font-weight:normal;font-stretch:normal;font-family:helvari;-inkscape-font-specification:helvari;letter-spacing:1.05833328px;fill:#fdb709;fill-opacity:1;stroke-width:0.217241"
           d="m 114.35351,190.01229 q 0,0.0521 0,0.11297 0,0.0521 -0.0174,0.0782 -0.0348,0.0695 -0.18248,0.0782 -0.14772,0.009 -0.31282,0.009 h -3.10221 q -0.0434,-0.009 -0.0695,-0.0608 -0.0174,-0.0521 -0.0261,-0.12165 -0.009,-0.0782 -0.009,-0.15642 0,-0.0869 0,-0.15641 v -5.1964 q 0,-0.14773 0.0174,-0.30414 0.0174,-0.16511 0.11296,-0.17379 0.0435,-0.009 0.13035,-0.009 0.0695,0 0.13903,0.009 0.0695,0 0.13904,0 0.0695,0 0.13034,0 0.0695,-0.009 0.13903,-0.009 0.0348,0 0.0608,0.009 0.0348,0 0.0695,0 0.11296,0.009 0.12165,0.13034 0.0174,0.11296 0.0174,0.30414 v 4.90095 h 2.13765 q 0.14773,0 0.30414,0.009 0.15642,0.009 0.18248,0.0869 0.0174,0.0348 0.0174,0.14772 v 0.13035 z" />
        <path
           inkscape:export-ydpi="96"
           inkscape:export-xdpi="96"
           inkscape:connector-curvature="0"
           id="path2135"
           style="font-style:normal;font-variant:normal;font-weight:normal;font-stretch:normal;font-family:helvari;-inkscape-font-specification:helvari;letter-spacing:1.05833328px;fill:#fdb709;fill-opacity:1;stroke-width:0.217241"
           d="m 120.1303,190.05574 q 0,0.17379 -0.0869,0.21724 -0.0261,0.0174 -0.12166,0.0174 -0.0869,0 -0.17379,0 h -3.12827 q -0.10428,0 -0.20855,0 -0.0956,-0.009 -0.11297,-0.0348 -0.0261,-0.0261 -0.0348,-0.12165 -0.009,-0.0956 -0.009,-0.22593 v -5.50055 q 0,-0.0434 0,-0.0869 0,-0.0435 0.009,-0.0869 0.009,-0.0521 0.13035,-0.0782 0.0434,-0.009 0.0869,-0.009 0.0521,-0.009 0.0956,-0.009 0.0521,-0.0174 0.10428,-0.0174 h 3.05875 q 0.0782,0 0.1651,0.009 0.0956,0 0.12166,0.0174 0.0869,0.0435 0.0869,0.23462 0,0.0434 -0.009,0.0869 0,0.0348 0,0.0782 v 0.0956 q 0,0.0435 0,0.0782 0.009,0.0261 0.009,0.0608 v 0.0174 q 0,0.0261 -0.009,0.0608 0,0.0261 -0.0261,0.0521 -0.0261,0.0261 -0.12166,0.0348 -0.0956,0.009 -0.20855,0.009 h -2.42441 v 1.74662 h 2.16372 q 0.0521,0 0.10428,0.009 0.0521,0 0.0956,0.009 0.0956,0 0.12166,0.0348 0.0348,0.0521 0.0348,0.12165 v 0.33021 0.13903 q 0,0.0782 -0.0434,0.12166 -0.0348,0.0434 -0.13035,0.0521 -0.0956,0.009 -0.18248,0.009 h -2.16372 v 1.93779 h 2.62427 q 0.10428,0 0.13035,0.0261 0.0434,0.0348 0.0434,0.0956 0.009,0.0608 0.009,0.13034 v 0.16511 z" />
        <path
           inkscape:export-ydpi="96"
           inkscape:export-xdpi="96"
           inkscape:connector-curvature="0"
           id="path2137"
           style="font-style:normal;font-variant:normal;font-weight:normal;font-stretch:normal;font-family:helvari;-inkscape-font-specification:helvari;letter-spacing:1.05833328px;fill:#fdb709;fill-opacity:1;stroke-width:0.217241"
           d="m 126.0809,187.94416 q 0.0521,0.10427 0.0956,0.21724 0.0434,0.10427 0.0869,0.21724 0.0782,0.19986 0.14772,0.44317 0.0782,0.23462 0.13035,0.48662 0.0261,0.13034 0.0608,0.26069 0.0435,0.12165 0.0869,0.24331 0.0174,0.0348 0.0261,0.0608 0.009,0.0261 0.0174,0.0521 0.0261,0.0435 0.0434,0.0869 0.0174,0.0348 0.0261,0.0695 0.0174,0.0261 0.0348,0.0695 0,0.0782 -0.0782,0.11296 -0.0695,0.0261 -0.19117,0.0261 h -0.70387 q -0.0521,0 -0.11296,-0.0608 -0.0521,-0.0695 -0.0956,-0.22593 -0.0348,-0.12165 -0.0608,-0.23462 -0.0174,-0.12165 -0.0348,-0.18248 -0.0174,-0.0608 -0.0348,-0.12166 -0.009,-0.0608 -0.0261,-0.13034 -0.0174,-0.0521 -0.0348,-0.10428 -0.009,-0.0608 -0.0261,-0.11296 -0.0608,-0.15642 -0.12165,-0.31283 -0.0608,-0.15641 -0.13035,-0.30414 -0.0869,-0.17379 -0.20855,-0.3302 -0.11296,-0.16511 -0.27807,-0.26938 -0.0261,-0.0174 -0.0608,-0.0348 -0.0348,-0.0174 -0.0608,-0.0348 -0.0348,-0.0174 -0.0348,-0.0174 -0.009,-0.009 -0.0174,-0.009 -0.18248,-0.0956 -0.44317,-0.0956 h -0.82552 v 2.28537 q 0,0.0695 -0.009,0.1651 0,0.0956 -0.0261,0.11297 -0.0695,0.0174 -0.12165,0.0174 h -0.55614 -0.19117 q -0.0695,0 -0.11297,-0.009 -0.0261,0 -0.0434,-0.12166 0,-0.0434 -0.009,-0.0782 0,-0.0434 0,-0.0782 v -5.67433 q 0,-0.0435 0.0521,-0.0956 0.0521,-0.0521 0.1738,-0.0695 0.0435,-0.009 0.0782,-0.009 0.0348,-0.009 0.0695,-0.009 0.0174,-0.009 0.0434,-0.009 0.009,-0.009 0.0174,-0.009 0.252,-0.0174 0.46055,-0.0261 0.21724,-0.009 0.44317,-0.009 h 0.3389 0.71255 l 0.28676,0.0261 q 0.89503,0.0782 1.3382,0.55613 0.40841,0.43448 0.40841,1.13834 0,0.30414 -0.0956,0.5909 -0.0869,0.26069 -0.26938,0.46924 -0.252,0.30414 -0.64303,0.45186 -0.0782,0.0348 -0.14773,0.0435 0.10428,0.0434 0.21724,0.13035 0.26069,0.19117 0.40842,0.44317 z m -2.08552,-3.06745 q -0.0956,0 -0.18248,0 -0.0869,0 -0.17379,0.009 -0.10428,0 -0.20855,0 -0.0956,0 -0.1738,0.009 v 2.07683 q 0.0956,0 0.22593,0.009 0.13035,0 0.27807,0 0.11297,0 0.22593,0 0.12166,0 0.252,0.009 0.17379,0 0.31283,-0.0174 0.14772,-0.0261 0.27807,-0.0608 0.10427,-0.0261 0.19117,-0.0695 0.0956,-0.0521 0.1651,-0.10427 0.1738,-0.13904 0.26069,-0.33021 0.0956,-0.19117 0.0956,-0.47793 0,-0.39103 -0.16511,-0.61696 -0.15641,-0.22593 -0.51268,-0.3389 -0.19987,-0.0521 -0.41711,-0.0695 -0.20855,-0.0261 -0.45186,-0.0261 z" />
        <path
           inkscape:export-ydpi="96"
           inkscape:export-xdpi="96"
           inkscape:connector-curvature="0"
           id="path2139"
           style="font-style:normal;font-variant:normal;font-weight:normal;font-stretch:normal;font-family:helvari;-inkscape-font-specification:helvari;letter-spacing:1.05833328px;fill:#fdb709;fill-opacity:1;stroke-width:0.217241"
           d="m 130.62376,189.56912 q 0.0695,0.0174 0.15642,0.0261 0.0869,0.009 0.18248,0.009 0.22593,-0.0174 0.4171,-0.0695 0.19986,-0.0608 0.34759,-0.18248 0.13034,-0.10428 0.21724,-0.26938 0.0869,-0.17379 0.0869,-0.39972 0,-0.0521 -0.009,-0.0782 -0.0174,-0.252 -0.13903,-0.39972 -0.13034,-0.16511 -0.35627,-0.29545 -0.21725,-0.13035 -0.51269,-0.22593 -0.13904,-0.0435 -0.27807,-0.0869 -0.13904,-0.0521 -0.28676,-0.0956 -0.1651,-0.0608 -0.33021,-0.11297 -0.1651,-0.0521 -0.3302,-0.12166 -0.13904,-0.0695 -0.26938,-0.13034 -0.12166,-0.0695 -0.23462,-0.15641 -0.13904,-0.10428 -0.252,-0.21724 -0.10428,-0.12166 -0.19117,-0.26938 -0.16511,-0.31283 -0.16511,-0.72124 0,-0.44317 0.1738,-0.78207 0.18248,-0.3389 0.46924,-0.55614 0.15641,-0.12165 0.3302,-0.20855 0.18249,-0.0869 0.39104,-0.13903 0.38234,-0.0956 0.76468,-0.0956 0.45187,0 0.8429,0.12166 0.21724,0.0695 0.38234,0.1651 0.1738,0.0869 0.32152,0.20855 0.12166,0.12165 0.21724,0.252 0.10428,0.12165 0.17379,0.26938 0.13904,0.252 0.14773,0.53876 0.009,0.0348 0.009,0.10427 -0.0521,0.0521 -0.0782,0.0695 -0.18248,0.18248 -0.51269,0.19986 h -0.15641 q -0.0261,-0.15641 -0.0956,-0.31283 -0.0608,-0.15641 -0.13034,-0.29544 -0.0348,-0.0521 -0.0695,-0.0956 -0.0261,-0.0521 -0.0521,-0.0869 -0.0174,-0.009 -0.0348,-0.0434 -0.0956,-0.0695 -0.19117,-0.12166 -0.0956,-0.0608 -0.20855,-0.0956 -0.28676,-0.0782 -0.59089,-0.0782 -0.26069,0 -0.45187,0.0608 -0.0782,0.0261 -0.15641,0.0608 -0.0695,0.0348 -0.13903,0.0869 -0.0695,0.0435 -0.11297,0.11296 -0.0435,0.0608 -0.0869,0.13035 -0.10428,0.1651 -0.10428,0.43448 0,0.0434 0.009,0.0695 0.009,0.19986 0.13903,0.33889 0.13904,0.15642 0.32152,0.252 0.12166,0.0608 0.26069,0.12166 0.13903,0.0608 0.29545,0.11296 0.30413,0.0869 0.61696,0.19118 0.31283,0.10427 0.60828,0.23462 0.30413,0.13903 0.54744,0.33889 0.24331,0.19117 0.40842,0.49531 0.0782,0.1651 0.12165,0.35628 0.0435,0.19117 0.0435,0.42579 0,0.45186 -0.19117,0.79945 -0.19117,0.34758 -0.52138,0.57351 -0.28676,0.20855 -0.66041,0.31283 -0.41711,0.12165 -0.88635,0.12165 -0.74731,0 -1.31213,-0.30413 -0.56483,-0.30414 -0.81683,-0.79076 -0.0782,-0.15641 -0.13034,-0.32152 -0.0435,-0.17379 -0.0521,-0.34758 v -0.10428 q 0.0261,-0.0348 0.0608,-0.0608 0.0782,-0.10427 0.27807,-0.17379 0.0869,-0.0261 0.19117,-0.0348 0.11296,-0.0174 0.21724,-0.0174 0.0695,0.16511 0.13903,0.35628 0.0435,0.0956 0.0956,0.19986 0.0521,0.0956 0.12165,0.19117 0.16511,0.23462 0.40842,0.39104 0.252,0.14772 0.5822,0.1651 z" />
        <path
           inkscape:export-ydpi="96"
           inkscape:export-xdpi="96"
           inkscape:connector-curvature="0"
           id="path2141"
           style="font-style:normal;font-variant:normal;font-weight:normal;font-stretch:normal;font-family:helvari;-inkscape-font-specification:helvari;letter-spacing:1.05833328px;fill:#fdb709;fill-opacity:1;stroke-width:0.217241"
           d="m 139.18532,189.56912 q 0.0695,0.0174 0.15641,0.0261 0.0869,0.009 0.18248,0.009 0.22593,-0.0174 0.41711,-0.0695 0.19986,-0.0608 0.34758,-0.18248 0.13035,-0.10428 0.21724,-0.26938 0.0869,-0.17379 0.0869,-0.39972 0,-0.0521 -0.009,-0.0782 -0.0174,-0.252 -0.13904,-0.39972 -0.13034,-0.16511 -0.35627,-0.29545 -0.21724,-0.13035 -0.51269,-0.22593 -0.13903,-0.0435 -0.27807,-0.0869 -0.13903,-0.0521 -0.28676,-0.0956 -0.1651,-0.0608 -0.3302,-0.11297 -0.16511,-0.0521 -0.33021,-0.12166 -0.13903,-0.0695 -0.26938,-0.13034 -0.12165,-0.0695 -0.23462,-0.15641 -0.13903,-0.10428 -0.252,-0.21724 -0.10427,-0.12166 -0.19117,-0.26938 -0.1651,-0.31283 -0.1651,-0.72124 0,-0.44317 0.17379,-0.78207 0.18248,-0.3389 0.46924,-0.55614 0.15641,-0.12165 0.33021,-0.20855 0.18248,-0.0869 0.39103,-0.13903 0.38234,-0.0956 0.76469,-0.0956 0.45186,0 0.84289,0.12166 0.21724,0.0695 0.38235,0.1651 0.17379,0.0869 0.32151,0.20855 0.12166,0.12165 0.21725,0.252 0.10427,0.12165 0.17379,0.26938 0.13903,0.252 0.14772,0.53876 0.009,0.0348 0.009,0.10427 -0.0521,0.0521 -0.0782,0.0695 -0.18249,0.18248 -0.51269,0.19986 h -0.15642 q -0.0261,-0.15641 -0.0956,-0.31283 -0.0608,-0.15641 -0.13035,-0.29544 -0.0348,-0.0521 -0.0695,-0.0956 -0.0261,-0.0521 -0.0521,-0.0869 -0.0174,-0.009 -0.0348,-0.0434 -0.0956,-0.0695 -0.19117,-0.12166 -0.0956,-0.0608 -0.20855,-0.0956 -0.28676,-0.0782 -0.5909,-0.0782 -0.26069,0 -0.45186,0.0608 -0.0782,0.0261 -0.15641,0.0608 -0.0695,0.0348 -0.13904,0.0869 -0.0695,0.0435 -0.11296,0.11296 -0.0434,0.0608 -0.0869,0.13035 -0.10428,0.1651 -0.10428,0.43448 0,0.0434 0.009,0.0695 0.009,0.19986 0.13904,0.33889 0.13903,0.15642 0.32151,0.252 0.12166,0.0608 0.26069,0.12166 0.13904,0.0608 0.29545,0.11296 0.30414,0.0869 0.61697,0.19118 0.31282,0.10427 0.60827,0.23462 0.30414,0.13903 0.54745,0.33889 0.24331,0.19117 0.40841,0.49531 0.0782,0.1651 0.12166,0.35628 0.0434,0.19117 0.0434,0.42579 0,0.45186 -0.19117,0.79945 -0.19117,0.34758 -0.52138,0.57351 -0.28675,0.20855 -0.66041,0.31283 -0.4171,0.12165 -0.88634,0.12165 -0.74731,0 -1.31214,-0.30413 -0.56482,-0.30414 -0.81682,-0.79076 -0.0782,-0.15641 -0.13035,-0.32152 -0.0434,-0.17379 -0.0521,-0.34758 v -0.10428 q 0.0261,-0.0348 0.0608,-0.0608 0.0782,-0.10427 0.27807,-0.17379 0.0869,-0.0261 0.19117,-0.0348 0.11297,-0.0174 0.21724,-0.0174 0.0695,0.16511 0.13904,0.35628 0.0434,0.0956 0.0956,0.19986 0.0521,0.0956 0.12166,0.19117 0.1651,0.23462 0.40841,0.39104 0.252,0.14772 0.58221,0.1651 z" />
        <path
           inkscape:export-ydpi="96"
           inkscape:export-xdpi="96"
           inkscape:connector-curvature="0"
           id="path2143"
           style="font-style:normal;font-variant:normal;font-weight:normal;font-stretch:normal;font-family:helvari;-inkscape-font-specification:helvari;letter-spacing:1.05833328px;fill:#fdb709;fill-opacity:1;stroke-width:0.217241"
           d="m 147.62984,190.05574 q 0,0.17379 -0.0869,0.21724 -0.0261,0.0174 -0.12165,0.0174 -0.0869,0 -0.1738,0 h -3.12827 q -0.10427,0 -0.20855,0 -0.0956,-0.009 -0.11296,-0.0348 -0.0261,-0.0261 -0.0348,-0.12165 -0.009,-0.0956 -0.009,-0.22593 v -5.50055 q 0,-0.0434 0,-0.0869 0,-0.0435 0.009,-0.0869 0.009,-0.0521 0.13034,-0.0782 0.0435,-0.009 0.0869,-0.009 0.0521,-0.009 0.0956,-0.009 0.0521,-0.0174 0.10427,-0.0174 h 3.05875 q 0.0782,0 0.16511,0.009 0.0956,0 0.12165,0.0174 0.0869,0.0435 0.0869,0.23462 0,0.0434 -0.009,0.0869 0,0.0348 0,0.0782 v 0.0956 q 0,0.0435 0,0.0782 0.009,0.0261 0.009,0.0608 v 0.0174 q 0,0.0261 -0.009,0.0608 0,0.0261 -0.0261,0.0521 -0.0261,0.0261 -0.12165,0.0348 -0.0956,0.009 -0.20856,0.009 h -2.42441 v 1.74662 h 2.16372 q 0.0521,0 0.10428,0.009 0.0521,0 0.0956,0.009 0.0956,0 0.12165,0.0348 0.0348,0.0521 0.0348,0.12165 v 0.33021 0.13903 q 0,0.0782 -0.0435,0.12166 -0.0348,0.0434 -0.13034,0.0521 -0.0956,0.009 -0.18249,0.009 h -2.16372 v 1.93779 h 2.62428 q 0.10427,0 0.13034,0.0261 0.0434,0.0348 0.0434,0.0956 0.009,0.0608 0.009,0.13034 v 0.16511 z" />
        <path
           inkscape:export-ydpi="96"
           inkscape:export-xdpi="96"
           inkscape:connector-curvature="0"
           id="path2145"
           style="font-style:normal;font-variant:normal;font-weight:normal;font-stretch:normal;font-family:helvari;-inkscape-font-specification:helvari;letter-spacing:1.05833328px;fill:#fdb709;fill-opacity:1;stroke-width:0.217241"
           d="m 153.58043,187.94416 q 0.0521,0.10427 0.0956,0.21724 0.0434,0.10427 0.0869,0.21724 0.0782,0.19986 0.14773,0.44317 0.0782,0.23462 0.13034,0.48662 0.0261,0.13034 0.0608,0.26069 0.0435,0.12165 0.0869,0.24331 0.0174,0.0348 0.0261,0.0608 0.009,0.0261 0.0174,0.0521 0.0261,0.0435 0.0434,0.0869 0.0174,0.0348 0.0261,0.0695 0.0174,0.0261 0.0348,0.0695 0,0.0782 -0.0782,0.11296 -0.0695,0.0261 -0.19117,0.0261 h -0.70386 q -0.0521,0 -0.11297,-0.0608 -0.0521,-0.0695 -0.0956,-0.22593 -0.0348,-0.12165 -0.0608,-0.23462 -0.0174,-0.12165 -0.0348,-0.18248 -0.0174,-0.0608 -0.0348,-0.12166 -0.009,-0.0608 -0.0261,-0.13034 -0.0174,-0.0521 -0.0348,-0.10428 -0.009,-0.0608 -0.0261,-0.11296 -0.0608,-0.15642 -0.12166,-0.31283 -0.0608,-0.15641 -0.13034,-0.30414 -0.0869,-0.17379 -0.20855,-0.3302 -0.11297,-0.16511 -0.27807,-0.26938 -0.0261,-0.0174 -0.0608,-0.0348 -0.0348,-0.0174 -0.0608,-0.0348 -0.0348,-0.0174 -0.0348,-0.0174 -0.009,-0.009 -0.0174,-0.009 -0.18248,-0.0956 -0.44317,-0.0956 h -0.82551 v 2.28537 q 0,0.0695 -0.009,0.1651 0,0.0956 -0.0261,0.11297 -0.0695,0.0174 -0.12166,0.0174 h -0.55613 -0.19118 q -0.0695,0 -0.11296,-0.009 -0.0261,0 -0.0434,-0.12166 0,-0.0434 -0.009,-0.0782 0,-0.0434 0,-0.0782 v -5.67433 q 0,-0.0435 0.0521,-0.0956 0.0521,-0.0521 0.17379,-0.0695 0.0435,-0.009 0.0782,-0.009 0.0348,-0.009 0.0695,-0.009 0.0174,-0.009 0.0434,-0.009 0.009,-0.009 0.0174,-0.009 0.252,-0.0174 0.46055,-0.0261 0.21725,-0.009 0.44318,-0.009 h 0.33889 0.71255 l 0.28676,0.0261 q 0.89503,0.0782 1.3382,0.55613 0.40842,0.43448 0.40842,1.13834 0,0.30414 -0.0956,0.5909 -0.0869,0.26069 -0.26938,0.46924 -0.252,0.30414 -0.64303,0.45186 -0.0782,0.0348 -0.14772,0.0435 0.10427,0.0434 0.21724,0.13035 0.26069,0.19117 0.40841,0.44317 z m -2.08551,-3.06745 q -0.0956,0 -0.18249,0 -0.0869,0 -0.17379,0.009 -0.10427,0 -0.20855,0 -0.0956,0 -0.17379,0.009 v 2.07683 q 0.0956,0 0.22593,0.009 0.13034,0 0.27807,0 0.11296,0 0.22593,0 0.12165,0 0.252,0.009 0.17379,0 0.31282,-0.0174 0.14773,-0.0261 0.27807,-0.0608 0.10428,-0.0261 0.19117,-0.0695 0.0956,-0.0521 0.16511,-0.10427 0.17379,-0.13904 0.26069,-0.33021 0.0956,-0.19117 0.0956,-0.47793 0,-0.39103 -0.1651,-0.61696 -0.15641,-0.22593 -0.51269,-0.3389 -0.19986,-0.0521 -0.4171,-0.0695 -0.20855,-0.0261 -0.45186,-0.0261 z" />
        <path
           inkscape:export-ydpi="96"
           inkscape:export-xdpi="96"
           inkscape:connector-curvature="0"
           id="path2147"
           style="font-style:normal;font-variant:normal;font-weight:normal;font-stretch:normal;font-family:helvari;-inkscape-font-specification:helvari;letter-spacing:1.05833328px;fill:#fdb709;fill-opacity:1;stroke-width:0.217241"
           d="m 160.2175,184.15547 q 0.0348,-0.0261 0.0956,-0.0261 0.0695,-0.009 0.13903,-0.009 h 0.15641 q 0.0435,0 0.0869,0 0.0521,0 0.10428,0.009 0.0695,0.009 0.14772,0.0261 0.0782,0.0174 0.0869,0.0695 0,0.0174 0,0.0261 0.009,0 0.009,0.0174 0,0.0435 -0.0261,0.0956 -0.0261,0.0695 -0.0521,0.14773 -0.0174,0.0695 -0.0434,0.13903 -0.0348,0.0782 -0.0608,0.14773 -0.0174,0.0695 -0.0434,0.15641 -0.0435,0.12166 -0.14773,0.40841 -0.10427,0.27807 -0.23462,0.64304 -0.13034,0.35627 -0.27807,0.756 -0.13903,0.39972 -0.26938,0.7473 -0.13034,0.34759 -0.22593,0.60828 -0.0869,0.26069 -0.12165,0.34759 -0.0695,0.19986 -0.13904,0.39103 -0.0608,0.18248 -0.13034,0.35627 -0.0348,0.0956 -0.0695,0.18249 -0.0261,0.0869 -0.0608,0.17379 -0.0174,0.0435 -0.0348,0.0956 -0.009,0.0434 -0.0261,0.0869 -0.0174,0.0521 -0.0348,0.10428 -0.0174,0.0434 -0.0348,0.0956 -0.0174,0.0435 -0.0435,0.0869 -0.0174,0.0434 -0.0348,0.0869 -0.0348,0.0608 -0.0782,0.11296 -0.0348,0.0521 -0.0869,0.0521 h -0.77338 q -0.0695,0 -0.12165,-0.10428 -0.0174,-0.0434 -0.0435,-0.11296 -0.0261,-0.0782 -0.0521,-0.14773 -0.0174,-0.0434 -0.0348,-0.0869 -0.009,-0.0435 -0.0261,-0.0869 0,-0.0521 -0.0261,-0.0782 -0.009,-0.0348 -0.0174,-0.0521 -0.009,-0.0261 -0.0174,-0.0435 -0.19987,-0.5909 -0.40842,-1.16441 -0.20855,-0.57352 -0.4171,-1.14704 -0.19986,-0.5822 -0.40841,-1.15572 -0.20855,-0.57351 -0.41711,-1.15572 -0.0261,-0.0869 -0.0521,-0.14772 -0.0261,-0.0695 -0.0521,-0.15642 -0.0261,-0.0782 -0.0521,-0.14772 -0.0174,-0.0782 -0.0434,-0.14772 -0.009,-0.0261 -0.009,-0.0435 0,-0.0174 -0.009,-0.0435 0,-0.0435 0.0608,-0.0869 0.0608,-0.0435 0.19117,-0.0521 0.0174,-0.009 0.0521,-0.009 h 0.11297 0.38234 q 0.1651,0 0.23462,0.0348 0.0695,0.0348 0.0782,0.0869 0.0435,0.0695 0.0521,0.13034 0.0174,0.0608 0.0434,0.13035 0.0174,0.0348 0.0261,0.0695 0.009,0.0348 0.0261,0.0695 0.0261,0.0782 0.0521,0.15642 0.0261,0.0695 0.0521,0.14772 0.27807,0.83421 0.54744,1.65103 0.26938,0.81683 0.54745,1.64234 0.0608,0.19118 0.10428,0.39104 0.0521,0.19986 0.0956,0.31283 0.0434,-0.12166 0.0869,-0.31283 0.0435,-0.19117 0.11297,-0.39104 0.15641,-0.44317 0.29544,-0.86896 0.14773,-0.42579 0.29545,-0.86896 0.0695,-0.19987 0.13035,-0.39104 0.0695,-0.19986 0.13034,-0.38234 0.0521,-0.14773 0.0956,-0.28676 0.0521,-0.14772 0.0956,-0.26938 0.0261,-0.0695 0.0435,-0.13903 0.0261,-0.0695 0.0521,-0.13035 0.0174,-0.0435 0.0348,-0.10427 0.0174,-0.0608 0.0521,-0.15642 0.009,-0.0434 0.0174,-0.0782 0.0174,-0.0434 0.0348,-0.0869 0.0174,-0.0435 0.0261,-0.0782 0.0174,-0.0434 0.0261,-0.0695 0.0261,-0.0608 0.11297,-0.0695 0.0348,-0.0261 0.0608,-0.0435 0.0348,-0.0261 0.0695,-0.0608 z" />
        <path
           inkscape:export-ydpi="96"
           inkscape:export-xdpi="96"
           inkscape:connector-curvature="0"
           id="path2149"
           style="font-style:normal;font-variant:normal;font-weight:normal;font-stretch:normal;font-family:helvari;-inkscape-font-specification:helvari;letter-spacing:1.05833328px;fill:#fdb709;fill-opacity:1;stroke-width:0.217241"
           d="m 166.73292,190.05574 q 0,0.17379 -0.0869,0.21724 -0.0261,0.0174 -0.12165,0.0174 -0.0869,0 -0.1738,0 h -3.12827 q -0.10427,0 -0.20855,0 -0.0956,-0.009 -0.11296,-0.0348 -0.0261,-0.0261 -0.0348,-0.12165 -0.009,-0.0956 -0.009,-0.22593 v -5.50055 q 0,-0.0434 0,-0.0869 0,-0.0435 0.009,-0.0869 0.009,-0.0521 0.13034,-0.0782 0.0435,-0.009 0.0869,-0.009 0.0521,-0.009 0.0956,-0.009 0.0521,-0.0174 0.10427,-0.0174 h 3.05876 q 0.0782,0 0.1651,0.009 0.0956,0 0.12165,0.0174 0.0869,0.0435 0.0869,0.23462 0,0.0434 -0.009,0.0869 0,0.0348 0,0.0782 v 0.0956 q 0,0.0435 0,0.0782 0.009,0.0261 0.009,0.0608 v 0.0174 q 0,0.0261 -0.009,0.0608 0,0.0261 -0.0261,0.0521 -0.0261,0.0261 -0.12165,0.0348 -0.0956,0.009 -0.20856,0.009 h -2.4244 v 1.74662 h 2.16372 q 0.0521,0 0.10427,0.009 0.0521,0 0.0956,0.009 0.0956,0 0.12165,0.0348 0.0348,0.0521 0.0348,0.12165 v 0.33021 0.13903 q 0,0.0782 -0.0435,0.12166 -0.0348,0.0434 -0.13034,0.0521 -0.0956,0.009 -0.18248,0.009 h -2.16372 v 1.93779 h 2.62427 q 0.10427,0 0.13034,0.0261 0.0435,0.0348 0.0435,0.0956 0.009,0.0608 0.009,0.13034 v 0.16511 z" />
        <path
           inkscape:export-ydpi="96"
           inkscape:export-xdpi="96"
           inkscape:connector-curvature="0"
           id="path2151"
           style="font-style:normal;font-variant:normal;font-weight:normal;font-stretch:normal;font-family:helvari;-inkscape-font-specification:helvari;letter-spacing:1.05833328px;fill:#fdb709;fill-opacity:1;stroke-width:0.217241"
           d="m 170.1722,190.36857 q -0.11296,0 -0.22593,-0.009 -0.11296,0 -0.21724,0 -0.12165,0 -0.252,-0.009 -0.13034,-0.009 -0.24331,-0.0261 -0.0956,-0.0174 -0.19117,-0.0261 -0.0869,-0.009 -0.18248,-0.0261 -0.0261,-0.009 -0.0435,-0.0695 -0.0174,-0.0608 -0.0348,-0.14772 0,-0.0695 -0.009,-0.13035 0,-0.0608 0,-0.10427 v -5.32675 q 0,-0.0521 0,-0.10428 0,-0.0521 0.0174,-0.10427 0.009,-0.0435 0.18248,-0.0869 0.0695,-0.0174 0.13035,-0.0261 0.0695,-0.009 0.12165,-0.009 0.0695,-0.0174 0.0956,-0.0174 h 0.0782 q 0.12165,-0.0174 0.252,-0.0174 0.13034,-0.009 0.27806,-0.0174 0.1738,-0.009 0.34759,-0.009 0.18248,0 0.38234,-0.009 1.55545,0 2.32883,0.79944 0.77338,0.79076 0.77338,2.24193 0.009,0.37365 -0.0435,0.71255 -0.0521,0.33021 -0.14773,0.63434 -0.17379,0.5909 -0.57351,1.02538 -0.38235,0.4171 -0.95586,0.64304 -0.56483,0.21724 -1.38166,0.21724 h -0.17379 z m -0.12165,-5.47448 q -0.0521,0 -0.10428,0.009 -0.0521,0 -0.10427,0 v 4.58813 q 0.12165,0 0.26938,0.009 0.14772,0 0.29544,0.009 h 0.3389 q 0.36497,0 0.69517,-0.11296 0.3389,-0.11297 0.60828,-0.36497 0.252,-0.23462 0.40841,-0.61696 0.20855,-0.49531 0.20855,-1.22524 0,-0.52138 -0.10427,-0.92979 -0.0956,-0.40842 -0.31283,-0.70386 -0.252,-0.35628 -0.70386,-0.504 -0.45186,-0.15642 -1.12966,-0.15642 h -0.1651 z" />
      </g>
      <g
         aria-label="McDonaldsCoin"
         transform="matrix(0.55186508,0,0,0.55186508,-36.713076,-175.1148)"
         style="font-style:normal;font-weight:normal;font-size:40px;line-height:1.25;font-family:sans-serif;letter-spacing:-8.25px;word-spacing:0px;fill:#000000;fill-opacity:1;stroke:none"
         id="flowRoot2154"
         inkscape:export-xdpi="96"
         inkscape:export-ydpi="96">
        <path
           d="m 137.6,606.03064 q 0.12,-0.28 0.24,-0.64 0.16,-0.36 0.28,-0.64 0.08,-0.2 0.16,-0.36 0.12,-0.2 0.32,-0.2 0.44,0 0.76,0.04 0.32,0 0.72,0 h 2.64 q 0.2,0 0.6,0.08 0.2,0.12 0.32,0.48 0.08,0.4 0.12,0.84 0.08,0.44 0.08,0.88 0.04,0.08 0.04,0.2 v 0.44 q 0.04,0.6 0.08,1.32 0.04,0.68 0.08,1.48 0.04,0.4 0.08,1.52 0.08,1.12 0.16,2.6 0.08,1.48 0.16,3.16 0.08,1.64 0.16,3.16 0.08,1.48 0.16,2.64 0.08,1.12 0.08,1.56 0.12,2.32 0.2,4.44 0.12,2.08 0.12,3.6 h -1.04 -2.76 q -0.32,0 -0.52,-0.04 -0.16,-0.16 -0.16,-0.6 -0.04,-0.28 -0.04,-0.6 0,-0.36 0,-0.64 v -0.52 q 0,-0.2 -0.04,-0.36 0,-0.16 0,-0.28 -0.08,-1.92 -0.16,-3.68 -0.04,-1.76 -0.12,-3.44 -0.08,-1.24 -0.12,-2.44 -0.04,-1.2 -0.08,-2.24 -0.04,-0.48 -0.04,-0.92 0,-0.44 -0.04,-0.8 -0.04,-0.6 -0.04,-1.36 0,-0.8 0,-1.72 v -1.8 q -0.12,0.32 -0.28,0.76 -0.12,0.44 -0.32,0.96 l -0.36,1.08 q -0.24,0.76 -0.48,1.44 -0.08,0.08 -0.08,0.24 0,0.12 -0.08,0.12 -0.04,0.16 -0.2,0.48 -0.6,1.72 -1.24,3.4 -0.6,1.68 -1.24,3.36 -0.12,0.32 -0.52,1.4 -0.36,1.04 -0.84,2.24 -0.44,1.2 -0.84,2.28 -0.36,1.04 -0.48,1.36 -0.08,0.2 -0.16,0.4 -0.08,0.2 -0.16,0.4 -0.16,0.4 -0.32,0.76 -0.12,0.36 -0.28,0.76 h -1.44 -0.76 -1.32 q -0.2,-0.44 -0.4,-0.92 -0.16,-0.48 -0.36,-0.96 -0.72,-1.96 -1.44,-3.88 -0.72,-1.92 -1.44,-3.84 -0.32,-0.84 -0.64,-1.68 -0.28,-0.88 -0.6,-1.72 -0.24,-0.64 -0.48,-1.24 -0.2,-0.6 -0.44,-1.16 -0.12,-0.32 -0.24,-0.6 -0.08,-0.32 -0.2,-0.6 0,-0.08 -0.04,-0.2 -0.12,-0.36 -0.28,-0.8 -0.16,-0.48 -0.36,-1.04 -0.08,-0.24 -0.16,-0.48 -0.08,-0.28 -0.16,-0.56 -0.2,-0.52 -0.32,-0.96 -0.12,-0.44 -0.28,-0.76 v 0.36 2.12 q -0.04,0.52 -0.04,1.04 0,0.48 -0.04,1 -0.08,1.92 -0.12,3.72 -0.04,1.76 -0.16,3.44 -0.08,1.2 -0.12,2.4 -0.04,1.2 -0.08,2.28 -0.04,0.64 -0.08,1.24 0,0.6 -0.04,1.2 v 1.96 q 0,0.24 -0.08,0.4 -0.08,0.12 -0.16,0.2 -0.12,0.04 -0.28,0.04 -0.12,0 -0.2,0 h -1.2 -2.6 q 0.04,-1.4 0.12,-3.44 0.04,-1.08 0.08,-2.2 0.04,-1.16 0.12,-2.4 0.12,-2.48 0.24,-5 0.16,-2.56 0.28,-5.08 0,-0.36 0.08,-1.44 0.08,-1.12 0.12,-2.32 0.08,-1.24 0.16,-2.28 0.08,-1.08 0.08,-1.32 0,-0.44 0.04,-0.64 0,-0.24 0,-0.48 0.04,-0.24 0.08,-0.48 0.04,-0.44 0.16,-0.88 0.12,-0.44 0.48,-0.44 h 3.04 q 0.44,0 0.72,0 0.32,-0.04 0.72,-0.04 0.32,0 0.52,0.56 0.12,0.28 0.24,0.64 0.16,0.36 0.24,0.64 0.04,0.08 0.08,0.2 0.04,0.12 0.08,0.2 0.08,0.16 0.12,0.36 0.08,0.16 0.16,0.4 0.32,0.72 0.6,1.56 0.24,0.68 0.52,1.36 0.28,0.68 0.56,1.44 0.32,0.8 0.6,1.64 0.32,0.84 0.64,1.68 0.6,1.68 1.24,3.36 0.64,1.68 1.12,3.12 0.16,0.44 0.28,0.84 0.16,0.4 0.24,0.72 0.32,0.8 0.56,1.56 0.24,0.76 0.4,1.2 0.08,0.24 0.08,0.36 0.08,-0.16 0.08,-0.32 0.04,-0.2 0.12,-0.4 0.12,-0.28 0.32,-1.04 0.12,-0.36 0.16,-0.52 0.08,-0.16 0.16,-0.4 0.08,-0.24 0.2,-0.68 0.16,-0.44 0.48,-1.32 0.28,-0.72 0.56,-1.52 0.28,-0.8 0.6,-1.64 0.6,-1.64 1.24,-3.32 0.64,-1.68 1.24,-3.32 0.36,-0.96 0.72,-1.84 0.36,-0.92 0.64,-1.76 0.08,-0.28 0.16,-0.48 0.12,-0.2 0.12,-0.28 0.08,-0.24 0.16,-0.4 0.08,-0.2 0.16,-0.36 0.04,-0.08 0.04,-0.2 0.04,-0.12 0.08,-0.2 z"
           style="font-style:normal;font-variant:normal;font-weight:normal;font-stretch:normal;font-family:helvari;-inkscape-font-specification:helvari;letter-spacing:0.47943482px;fill:#ffffff"
           id="path2932" />
        <path
           d="m 167.43939,616.91064 q 0.04,0.16 0.04,0.48 0,0.88 -0.68,1.28 -0.08,0.08 -0.2,0.16 -0.08,0.04 -0.16,0.12 -0.64,0.24 -1.16,0.24 -0.56,0 -1.04,-0.24 -0.44,-0.24 -0.64,-0.52 -0.16,-0.32 -0.36,-0.8 -0.2,-0.56 -0.48,-1.08 -0.24,-0.56 -0.76,-1 -0.56,-0.44 -1.16,-0.64 -0.6,-0.24 -1.44,-0.24 -2.08,0 -3.36,1.44 -1.28,1.48 -1.52,4.24 0,0.08 -0.04,0.16 0,0.04 0,0.12 v 1.04 q 0,0.76 0.04,1.48 0.08,0.72 0.28,1.4 0.6,2.68 2.48,3.96 1,0.64 2.52,0.64 2,0 3.12,-1.08 1,-0.96 1.44,-2.44 l 0.12,-0.36 v -0.04 q 0.28,-0.52 0.84,-0.52 0.32,0 0.44,0.04 1,0.12 2.08,0.56 0,0.2 -0.04,0.36 0,0.12 -0.04,0.28 -0.08,0.56 -0.24,1.16 -0.16,0.6 -0.44,1.2 -0.6,1.28 -1.6,2.36 -1.16,1.16 -2.72,1.8 -1.56,0.64 -3.48,0.64 -1.08,0 -2.08,-0.2 -0.96,-0.2 -1.88,-0.56 -0.8,-0.32 -1.48,-0.84 -0.68,-0.52 -1.32,-1.2 -2.64,-2.88 -2.64,-7.96 0,-1.24 0.16,-2.28 0.16,-1.04 0.44,-2.04 0.92,-3.24 3.28,-5 2.4,-1.76 5.64,-1.76 1.64,0 2.92,0.44 1.32,0.4 2.32,1.08 1,0.64 1.64,1.52 0.68,0.84 0.96,1.68 0.08,0.16 0.08,0.32 0.04,0.16 0.08,0.36 v 0.08 q 0.04,0.04 0.04,0.16 z"
           style="font-style:normal;font-variant:normal;font-weight:normal;font-stretch:normal;font-family:helvari;-inkscape-font-specification:helvari;letter-spacing:0.47943482px;fill:#ffffff"
           id="path2934" />
        <path
           d="m 179.0388,632.99064 q -0.52,0 -1.04,-0.04 -0.52,0 -1,0 -0.56,0 -1.16,-0.04 -0.6,-0.04 -1.12,-0.12 -0.44,-0.08 -0.88,-0.12 -0.4,-0.04 -0.84,-0.12 -0.12,-0.04 -0.2,-0.32 -0.08,-0.28 -0.16,-0.68 0,-0.32 -0.04,-0.6 0,-0.28 0,-0.48 v -24.52 q 0,-0.24 0,-0.48 0,-0.24 0.08,-0.48 0.04,-0.2 0.84,-0.4 0.32,-0.08 0.6,-0.12 0.32,-0.04 0.56,-0.04 0.32,-0.08 0.44,-0.08 h 0.36 q 0.56,-0.08 1.16,-0.08 0.6,-0.04 1.28,-0.08 0.8,-0.04 1.6,-0.04 0.84,0 1.76,-0.04 7.16,0 10.72,3.68 3.56,3.64 3.56,10.32 0.04,1.72 -0.2,3.28 -0.24,1.52 -0.68,2.92 -0.8,2.72 -2.64,4.72 -1.76,1.92 -4.4,2.96 -2.6,1 -6.36,1 h -0.8 z m -0.56,-25.2 q -0.24,0 -0.48,0.04 -0.24,0 -0.48,0 v 21.12 q 0.56,0 1.24,0.04 0.68,0 1.36,0.04 h 1.56 q 1.68,0 3.2,-0.52 1.56,-0.52 2.8,-1.68 1.16,-1.08 1.88,-2.84 0.96,-2.28 0.96,-5.64 0,-2.4 -0.48,-4.28 -0.44,-1.88 -1.44,-3.24 -1.16,-1.64 -3.24,-2.32 -2.08,-0.72 -5.2,-0.72 h -0.76 z"
           style="font-style:normal;font-variant:normal;font-weight:normal;font-stretch:normal;font-family:helvari;-inkscape-font-specification:helvari;letter-spacing:0.47943482px;fill:#ffffff"
           id="path2936" />
        <path
           d="m 207.15823,611.67064 q 0.68,-0.2 1.36,-0.28 0.72,-0.12 1.44,-0.12 1.92,0.12 3.36,0.76 1.8,0.8 3.04,2.16 1.44,1.56 2.12,3.84 0.6,1.84 0.6,4.08 0,2.24 -0.6,4.12 -0.68,2.36 -2.08,3.88 -0.64,0.68 -1.4,1.24 -0.76,0.56 -1.68,0.96 -1.84,0.76 -4.04,0.76 -2.24,0 -4.08,-0.76 -2.12,-0.96 -3.44,-2.64 -1.08,-1.4 -1.72,-3.44 -0.6,-1.88 -0.6,-4.12 0,-2.24 0.6,-4.08 0.8,-2.64 2.56,-4.32 1.8,-1.68 4.56,-2.04 z m 1.16,17.68 q 0.6,0.24 1.36,0.24 0.44,-0.04 0.84,-0.16 0.44,-0.12 0.8,-0.32 0.48,-0.28 0.84,-0.6 0.4,-0.32 0.72,-0.76 0.36,-0.56 0.68,-1.16 0.32,-0.64 0.52,-1.44 0.2,-0.68 0.24,-1.4 0.08,-0.76 0.08,-1.56 0,-1.8 -0.44,-3.28 -0.44,-1.48 -1.2,-2.48 -0.68,-0.84 -1.52,-1.32 -0.84,-0.48 -2,-0.48 -1.04,0 -2,0.44 -0.8,0.48 -1.56,1.4 -0.4,0.52 -0.68,1.16 -0.28,0.64 -0.48,1.44 -0.32,1.36 -0.32,2.88 0,1.88 0.4,3.32 0.48,1.68 1.4,2.8 0.96,1.08 2.32,1.28 z"
           style="font-style:normal;font-variant:normal;font-weight:normal;font-stretch:normal;font-family:helvari;-inkscape-font-specification:helvari;letter-spacing:0.47943482px;fill:#ffffff"
           id="path2938" />
        <path
           d="m 238.19765,632.63064 h -0.8 q -0.56,0 -0.76,-0.36 -0.08,-0.12 -0.08,-0.4 0,-0.32 0,-0.6 v -13.08 q -0.04,-0.4 -0.08,-0.8 -0.04,-0.4 -0.12,-0.76 -0.36,-1.44 -2,-1.8 -0.68,-0.2 -1.56,-0.2 -1.52,0 -2.52,0.56 -1,0.52 -1.4,1.08 -0.08,0.08 -0.16,0.2 -0.04,0.12 -0.12,0.2 -0.28,0.44 -0.28,1.16 0,0.56 0,1.2 0.04,0.6 0.04,1.24 0,0.32 -0.04,0.6 0,0.28 0,0.6 0.04,2.48 0.04,4.92 0,2.4 0.04,4.88 0,0.28 -0.04,0.6 0,0.28 -0.08,0.4 -0.2,0.36 -0.72,0.36 h -2.52 q -0.84,0 -1.04,-0.32 -0.2,-0.32 -0.2,-1.04 v -17.76 q 0.08,-0.12 0.2,-0.2 0.12,-0.08 0.2,-0.16 0.56,-0.36 1.04,-0.64 0.4,-0.2 0.8,-0.36 0.4,-0.16 0.8,-0.2 v 1.4 q 0.24,-0.16 0.28,-0.2 1.08,-0.92 2.72,-1.36 1.64,-0.48 3.52,-0.48 0.32,0 0.64,0 0.32,0 0.64,0.08 0.24,0.04 0.48,0.04 0.24,0 0.44,0.08 1.04,0.2 1.96,0.56 0.92,0.36 1.56,0.96 2,1.84 2,5.52 v 12.72 q 0,0.32 -0.04,0.6 0,0.28 -0.08,0.4 -0.16,0.36 -1.04,0.36 z"
           style="font-style:normal;font-variant:normal;font-weight:normal;font-stretch:normal;font-family:helvari;-inkscape-font-specification:helvari;letter-spacing:0.47943482px;fill:#ffffff"
           id="path2940" />
        <path
           d="m 262.67705,628.35064 v 3.8 q -0.32,0.32 -0.68,0.48 -0.36,0.12 -1.16,0.32 -0.2,0.04 -0.44,0.08 -0.24,0.04 -0.56,0.04 -1.76,0 -2.76,-1.2 -0.08,0.08 -0.2,0.16 -0.08,0.08 -0.16,0.16 -0.16,0.16 -0.28,0.24 -0.2,0.08 -0.36,0.12 -0.12,0.04 -0.32,0.12 -0.68,0.2 -1.36,0.28 -0.64,0.08 -1.32,0.08 h -0.84 q -1.12,-0.04 -2.24,-0.32 -0.64,-0.16 -1.16,-0.4 -0.52,-0.24 -0.96,-0.56 -0.96,-0.76 -1.56,-1.8 -0.56,-1.04 -0.56,-2.6 0,-2.08 1.04,-3.44 0.84,-1.16 2.2,-1.92 1.4,-0.76 3,-1.16 0.76,-0.2 1.52,-0.36 0.76,-0.16 1.56,-0.32 0.08,-0.04 0.28,-0.04 0.84,-0.16 1.36,-0.24 0.56,-0.12 0.84,-0.16 0.04,-0.04 0.08,-0.04 0.44,-0.12 0.76,-0.36 0.32,-0.28 0.4,-0.68 0.12,-0.48 0.12,-1 0,-0.72 -0.2,-1.28 -0.2,-0.6 -0.88,-1.04 -0.36,-0.2 -0.92,-0.36 -0.56,-0.16 -1.56,-0.16 -0.6,0 -1.28,0.2 -0.72,0.2 -1.28,0.52 -0.52,0.28 -0.96,0.6 -1.08,1.04 -1.84,2.28 -0.08,0.12 -0.12,0.24 -0.04,0.08 -0.12,0.2 -0.16,0 -0.32,0 -0.16,0 -0.28,-0.04 -0.4,0 -0.84,-0.12 -0.56,-0.12 -1,-0.36 -0.4,-0.24 -0.76,-0.6 0,-0.32 0.04,-0.48 0.08,-1.04 0.52,-1.84 0.28,-0.56 0.68,-1.04 0.44,-0.52 0.96,-0.92 0.44,-0.36 0.96,-0.68 0.56,-0.32 1.16,-0.52 1.4,-0.56 3.04,-0.72 h 0.16 q 0.2,-0.04 0.52,-0.04 0.2,0 0.36,0 0.16,-0.04 0.36,-0.04 h 0.28 q 0.2,0 0.4,0.04 0.2,0 0.4,0 1.12,0.08 2.2,0.4 1.08,0.32 1.96,1.04 1.08,0.76 1.6,2 0.52,1.16 0.52,2.56 z m -12.36,-1.32 q 0,1.36 0.96,2.12 1,0.76 2.6,0.76 1.72,0 2.88,-0.64 0.44,-0.24 0.72,-0.6 0.32,-0.4 0.4,-0.84 0.2,-0.72 0.24,-1.32 0.08,-0.64 0.08,-1.24 v -2.84 q -0.52,0.2 -1.04,0.36 -0.52,0.16 -1.08,0.28 -0.68,0.12 -1.36,0.28 -0.68,0.16 -1.32,0.36 -0.68,0.2 -1.32,0.52 -0.6,0.32 -1.04,0.76 -0.72,0.72 -0.72,2.04 z"
           style="font-style:normal;font-variant:normal;font-weight:normal;font-stretch:normal;font-family:helvari;-inkscape-font-specification:helvari;letter-spacing:0.47943482px;fill:#ffffff"
           id="path2942" />
        <path
           d="m 272.43644,603.11064 q 0.4,0 0.6,0.64 0.04,0.2 0,0.44 0,0.2 0.04,0.4 v 0.32 26.24 q 0,0.68 -0.24,1.08 -0.2,0.4 -0.4,0.4 h -3.24 q -0.2,0 -0.44,-0.4 -0.2,-0.4 -0.2,-1.08 v -1.4 -25.16 q 0,-0.68 0.2,-1.08 0.24,-0.4 0.44,-0.4 z"
           style="font-style:normal;font-variant:normal;font-weight:normal;font-stretch:normal;font-family:helvari;-inkscape-font-specification:helvari;letter-spacing:0.47943482px;fill:#ffffff"
           id="path2944" />
        <path
           d="m 295.71584,603.15064 q 0.88,0 1.08,0.36 0.12,0.16 0.12,0.52 0,0.36 0,0.64 v 28.04 h -3.44 v -1.36 q -0.08,0.04 -0.16,0.12 -0.08,0.04 -0.16,0.08 -0.72,0.8 -2.16,1.2 -1.4,0.4 -3.08,0.4 -3.96,0 -6.28,-1.88 -2.28,-1.92 -3.16,-4.96 -0.28,-0.92 -0.4,-1.84 -0.08,-0.92 -0.08,-1.96 0,-1.16 0.12,-2.28 0.16,-1.12 0.52,-2.16 0.48,-1.44 1.28,-2.68 0.8,-1.24 1.92,-2.12 1.12,-0.92 2.52,-1.4 1.44,-0.52 3.12,-0.52 1.68,0 3.36,0.68 0.68,0.28 1.16,0.84 0.08,0.08 0.16,0.12 0.12,0.04 0.2,0.12 v -6.88 -1.52 q 0,0 -0.04,-0.08 0,-0.28 0,-0.6 0,-0.32 0.12,-0.52 0.28,-0.36 1.12,-0.36 z m -9.16,26.24 q 0.68,0.24 1.44,0.24 0.48,0 0.92,-0.12 0.44,-0.16 0.84,-0.36 0.48,-0.24 0.88,-0.56 0.44,-0.32 0.76,-0.76 0.8,-1 1.2,-2.36 0.4,-1.36 0.4,-3.04 0,-0.84 -0.12,-1.52 -0.08,-0.68 -0.28,-1.36 -0.44,-1.6 -1.24,-2.64 -0.64,-0.88 -1.64,-1.4 -1,-0.52 -2.2,-0.52 -1.2,0 -2.16,0.48 -0.48,0.24 -0.92,0.56 -0.4,0.32 -0.72,0.76 -0.72,0.96 -1.16,2.32 -0.4,1.36 -0.4,3.04 0,1.6 0.36,2.92 0.48,1.76 1.44,2.96 1,1.16 2.6,1.36 z"
           style="font-style:normal;font-variant:normal;font-weight:normal;font-stretch:normal;font-family:helvari;-inkscape-font-specification:helvari;letter-spacing:0.47943482px;fill:#ffffff"
           id="path2946" />
        <path
           d="m 301.43527,627.07064 q 0.16,-0.2 0.32,-0.28 0.2,-0.12 0.48,-0.28 0.08,-0.12 0.24,-0.16 0.16,-0.08 0.32,-0.16 0.12,-0.08 0.36,-0.16 0.52,-0.2 0.76,-0.2 0.32,0 0.56,0.24 0.08,0 0.16,0.08 0.2,0.2 0.36,0.48 0.2,0.24 0.48,0.56 0.08,0.04 0.16,0.2 0.08,0.08 0.16,0.2 0.12,0.12 0.2,0.2 0.32,0.32 0.64,0.6 0.36,0.24 0.72,0.52 0.32,0.2 0.72,0.4 0.4,0.2 0.84,0.28 0.68,0.2 1.4,0.2 h 0.52 q 0.04,-0.04 0.08,-0.04 0.36,0 0.64,-0.12 0.84,-0.24 1.4,-0.84 0.56,-0.6 0.56,-1.6 0,-0.16 -0.04,-0.24 -0.08,-1.04 -0.92,-1.6 -0.8,-0.56 -1.84,-1 -0.64,-0.2 -1.32,-0.4 -0.64,-0.24 -1.32,-0.44 -1.52,-0.48 -2.88,-1.08 -1.36,-0.64 -2.32,-1.8 -1,-1.24 -1,-3.16 0,-1.56 0.6,-2.64 0.32,-0.64 0.76,-1.16 0.48,-0.56 1.08,-1 2.24,-1.52 5.2,-1.52 1.44,0 2.52,0.24 0.56,0.12 1.04,0.32 0.48,0.16 0.92,0.36 1.8,1 2.36,2.04 0.88,1.24 1.12,2.68 0,0.16 0.08,0.48 -0.52,0.4 -1.08,0.56 -0.4,0.16 -0.84,0.28 -0.44,0.12 -0.88,0.16 h -0.16 q -0.2,0 -0.36,-0.08 -0.16,-0.32 -0.28,-0.68 -0.08,-0.28 -0.2,-0.48 -0.12,-0.24 -0.24,-0.44 -0.08,-0.16 -0.32,-0.4 -0.48,-0.52 -1.24,-1 -0.92,-0.52 -2.36,-0.52 -1.6,0 -2.48,0.64 -0.32,0.24 -0.56,0.64 -0.24,0.36 -0.24,1.04 0,0.16 0.04,0.24 0.04,0.52 0.36,0.88 0.48,0.56 1.12,0.92 0.4,0.2 0.8,0.36 0.4,0.12 0.84,0.32 0.32,0.08 0.6,0.2 0.28,0.08 0.56,0.16 0.28,0.08 0.48,0.16 0.24,0.04 0.32,0.08 0.56,0.2 1.16,0.4 0.6,0.2 1.16,0.44 0.6,0.24 1.12,0.52 0.56,0.28 1.04,0.64 1.04,0.8 1.6,1.88 0.56,1.04 0.56,2.48 0,1.72 -0.72,3 -0.72,1.28 -1.92,2.08 -0.52,0.32 -1.12,0.6 -0.6,0.28 -1.32,0.48 -0.76,0.2 -1.56,0.28 -0.76,0.12 -1.64,0.12 -1.76,0 -3.32,-0.6 -0.68,-0.24 -1.28,-0.52 -0.6,-0.32 -1.16,-0.76 -1.16,-0.88 -1.92,-2.08 -0.6,-1.08 -0.68,-2.2 z"
           style="font-style:normal;font-variant:normal;font-weight:normal;font-stretch:normal;font-family:helvari;-inkscape-font-specification:helvari;letter-spacing:0.47943482px;fill:#ffffff"
           id="path2948" />
        <path
           d="m 345.83466,624.55064 q -0.04,0.2 -0.08,0.44 0,0.24 -0.08,0.44 -0.08,0.72 -0.32,1.36 -0.2,0.6 -0.48,1.16 -0.76,1.36 -1.72,2.24 -0.44,0.4 -0.88,0.72 -0.44,0.28 -0.88,0.56 -0.56,0.32 -1.16,0.56 -0.56,0.24 -1.16,0.44 -1.16,0.32 -2.4,0.52 -1.24,0.2 -2.6,0.2 -0.2,0 -0.4,-0.04 -0.2,0 -0.4,0 -2.84,-0.32 -4.88,-1.48 -1.16,-0.68 -2.08,-1.52 -0.88,-0.88 -1.68,-2 -0.68,-0.96 -1.2,-2.08 -0.48,-1.12 -0.8,-2.32 -0.36,-1.24 -0.52,-2.56 -0.16,-1.32 -0.16,-2.72 -0.04,-1.56 0.2,-3 0.28,-1.44 0.72,-2.8 0.64,-2 1.76,-3.64 1.16,-1.68 2.68,-2.84 1.56,-1.16 3.48,-1.8 1.96,-0.64 4.24,-0.64 2.24,0 4,0.56 1.8,0.56 3.24,1.56 1.52,1.2 2.32,2.56 0.8,1.32 0.96,2.68 0.08,0.32 0.08,0.52 l -0.36,0.36 q -0.48,0.4 -1.08,0.6 -0.6,0.24 -1.36,0.24 -0.2,0.04 -0.6,0.04 -0.28,-0.16 -0.36,-0.32 -0.28,-0.24 -0.48,-0.48 -0.16,-0.24 -0.36,-0.52 -0.2,-0.32 -0.4,-0.6 -0.2,-0.32 -0.4,-0.64 -0.68,-1 -1.8,-1.84 -0.68,-0.44 -1.56,-0.72 -0.88,-0.28 -2,-0.28 -1.96,0 -3.36,0.76 -1.4,0.76 -2.44,2.16 -1,1.48 -1.52,3.32 -0.24,0.92 -0.4,2 -0.12,1.08 -0.12,2.24 0,2.68 0.68,4.92 0.32,1 0.68,1.88 0.4,0.84 0.96,1.56 1.04,1.36 2.64,2.24 1.52,0.84 3.52,0.84 2.24,0 3.76,-0.92 0.76,-0.44 1.32,-1 0.6,-0.56 1.04,-1.16 0.12,-0.32 0.28,-0.52 0.28,-0.48 0.48,-0.96 0.2,-0.52 0.4,-1 0.76,0 1.6,0.16 0.84,0.16 1.44,0.56 z"
           style="font-style:normal;font-variant:normal;font-weight:normal;font-stretch:normal;font-family:helvari;-inkscape-font-specification:helvari;letter-spacing:0.47943482px;fill:#ffffff"
           id="path2950" />
        <path
           d="m 357.07403,611.67064 q 0.68,-0.2 1.36,-0.28 0.72,-0.12 1.44,-0.12 1.92,0.12 3.36,0.76 1.8,0.8 3.04,2.16 1.44,1.56 2.12,3.84 0.6,1.84 0.6,4.08 0,2.24 -0.6,4.12 -0.68,2.36 -2.08,3.88 -0.64,0.68 -1.4,1.24 -0.76,0.56 -1.68,0.96 -1.84,0.76 -4.04,0.76 -2.24,0 -4.08,-0.76 -2.12,-0.96 -3.44,-2.64 -1.08,-1.4 -1.72,-3.44 -0.6,-1.88 -0.6,-4.12 0,-2.24 0.6,-4.08 0.8,-2.64 2.56,-4.32 1.8,-1.68 4.56,-2.04 z m 1.16,17.68 q 0.6,0.24 1.36,0.24 0.44,-0.04 0.84,-0.16 0.44,-0.12 0.8,-0.32 0.48,-0.28 0.84,-0.6 0.4,-0.32 0.72,-0.76 0.36,-0.56 0.68,-1.16 0.32,-0.64 0.52,-1.44 0.2,-0.68 0.24,-1.4 0.08,-0.76 0.08,-1.56 0,-1.8 -0.44,-3.28 -0.44,-1.48 -1.2,-2.48 -0.68,-0.84 -1.52,-1.32 -0.84,-0.48 -2,-0.48 -1.04,0 -2,0.44 -0.8,0.48 -1.56,1.4 -0.4,0.52 -0.68,1.16 -0.28,0.64 -0.48,1.44 -0.32,1.36 -0.32,2.88 0,1.88 0.4,3.32 0.48,1.68 1.4,2.8 0.96,1.08 2.32,1.28 z"
           style="font-style:normal;font-variant:normal;font-weight:normal;font-stretch:normal;font-family:helvari;-inkscape-font-specification:helvari;letter-spacing:0.47943482px;fill:#ffffff"
           id="path2952" />
        <path
           d="m 373.75343,606.87064 q 0,-1.16 0.72,-1.92 0.76,-0.76 1.88,-0.76 1.12,0 1.88,0.76 0.76,0.76 0.76,1.92 0,1.12 -0.76,1.88 -0.76,0.72 -1.88,0.72 -1.12,0 -1.88,-0.72 -0.72,-0.76 -0.72,-1.88 z m 4.32,5.12 q 0.36,0 0.44,0.52 0.08,0.48 0.08,0.96 v 17.8 q 0,0.48 -0.04,1 -0.04,0.48 -0.4,0.48 h -3.8 q -0.36,0 -0.4,-0.48 0,-0.52 0,-1 v -17.8 q 0,-0.48 0,-0.92 0.04,-0.44 0.4,-0.56 z m -4.32,-5.12 q 0,-1.16 0.72,-1.92 0.76,-0.76 1.88,-0.76 1.12,0 1.88,0.76 0.76,0.76 0.76,1.92 0,1.12 -0.76,1.88 -0.76,0.72 -1.88,0.72 -1.12,0 -1.88,-0.72 -0.72,-0.76 -0.72,-1.88 z"
           style="font-style:normal;font-variant:normal;font-weight:normal;font-stretch:normal;font-family:helvari;-inkscape-font-specification:helvari;letter-spacing:0.47943482px;fill:#ffffff"
           id="path2954" />
        <path
           d="m 398.67282,632.63064 h -0.8 q -0.56,0 -0.76,-0.36 -0.08,-0.12 -0.08,-0.4 0,-0.32 0,-0.6 v -13.08 q -0.04,-0.4 -0.08,-0.8 -0.04,-0.4 -0.12,-0.76 -0.36,-1.44 -2,-1.8 -0.68,-0.2 -1.56,-0.2 -1.52,0 -2.52,0.56 -1,0.52 -1.4,1.08 -0.08,0.08 -0.16,0.2 -0.04,0.12 -0.12,0.2 -0.28,0.44 -0.28,1.16 0,0.56 0,1.2 0.04,0.6 0.04,1.24 0,0.32 -0.04,0.6 0,0.28 0,0.6 0.04,2.48 0.04,4.92 0,2.4 0.04,4.88 0,0.28 -0.04,0.6 0,0.28 -0.08,0.4 -0.2,0.36 -0.72,0.36 h -2.52 q -0.84,0 -1.04,-0.32 -0.2,-0.32 -0.2,-1.04 v -17.76 q 0.08,-0.12 0.2,-0.2 0.12,-0.08 0.2,-0.16 0.56,-0.36 1.04,-0.64 0.4,-0.2 0.8,-0.36 0.4,-0.16 0.8,-0.2 v 1.4 q 0.24,-0.16 0.28,-0.2 1.08,-0.92 2.72,-1.36 1.64,-0.48 3.52,-0.48 0.32,0 0.64,0 0.32,0 0.64,0.08 0.24,0.04 0.48,0.04 0.24,0 0.44,0.08 1.04,0.2 1.96,0.56 0.92,0.36 1.56,0.96 2,1.84 2,5.52 v 12.72 q 0,0.32 -0.04,0.6 0,0.28 -0.08,0.4 -0.16,0.36 -1.04,0.36 z"
           style="font-style:normal;font-variant:normal;font-weight:normal;font-stretch:normal;font-family:helvari;-inkscape-font-specification:helvari;letter-spacing:0.47943482px;fill:#ffffff"
           id="path2956" />
      </g>
      <g
         aria-label="200"
         style="font-style:normal;font-weight:normal;font-size:8.83488178px;line-height:1.25;font-family:sans-serif;letter-spacing:-1.82219446px;word-spacing:0px;fill:#fdb709;fill-opacity:1;stroke:none;stroke-width:0.22087204;stroke-opacity:1"
         id="text3579"
         inkscape:export-xdpi="96"
         inkscape:export-ydpi="96">
        <g
           id="g3631"
           transform="rotate(-0.4328932,72.669848,184.43538)">
          <rect
             y="180.91084"
             x="70.146812"
             height="7.0490913"
             width="5.0460706"
             id="rect3590"
             style="opacity:1;fill:#b71f1a;fill-opacity:1;stroke:#9a1a13;stroke-width:0.41177931;stroke-linecap:square;stroke-linejoin:miter;stroke-miterlimit:4;stroke-dasharray:none;stroke-opacity:1;paint-order:markers stroke fill"
             transform="translate(-1.2291666e-7,-1.0833333e-6)" />
        </g>
        <g
           id="g3681"
           transform="rotate(0.75725376,78.678599,184.42937)">
          <rect
             inkscape:transform-center-y="2.2158903"
             inkscape:transform-center-x="1.3559896"
             style="font-style:normal;font-weight:normal;font-size:8.83488178px;line-height:1.25;font-family:sans-serif;letter-spacing:-1.82219446px;word-spacing:0px;opacity:1;fill:#b71f1a;fill-opacity:1;stroke:#9a1a13;stroke-width:0.41177931;stroke-linecap:square;stroke-linejoin:miter;stroke-miterlimit:4;stroke-dasharray:none;stroke-opacity:1;paint-order:markers stroke fill"
             id="rect3590-9"
             width="5.0460706"
             height="7.0490913"
             x="76.155563"
             y="180.90483" />
        </g>
        <g
           id="g3677"
           transform="rotate(1.0898487,83.320796,191.80225)">
          <rect
             style="font-style:normal;font-weight:normal;font-size:8.83488178px;line-height:1.25;font-family:sans-serif;letter-spacing:-1.82219446px;word-spacing:0px;opacity:1;fill:#b71f1a;fill-opacity:1;stroke:#9a1a13;stroke-width:0.41177931;stroke-linecap:square;stroke-linejoin:miter;stroke-miterlimit:4;stroke-dasharray:none;stroke-opacity:1;paint-order:markers stroke fill"
             id="rect3590-90"
             width="5.0460706"
             height="7.0490913"
             x="81.957024"
             y="180.88948" />
        </g>
      </g>
    </g>
    <text
       xml:space="preserve"
       style="font-style:normal;font-weight:normal;font-size:9.20256996px;line-height:1.25;font-family:sans-serif;letter-spacing:0.8px;word-spacing:0px;fill:#fdb709;fill-opacity:1;stroke:none;stroke-width:0.23006424"
       x="67.353455"
       y="193.76299"
       id="text2244"
       transform="scale(1.0320514,0.96894394)"
       inkscape:export-xdpi="96"
       inkscape:export-ydpi="96"><tspan
         sodipodi:role="line"
         id="tspan2242"
         x="67.353455"
         y="193.76299"
         style="fill:#fdb709;fill-opacity:1;stroke-width:0.250">420</tspan></text>
  </g>
</svg>
